<?xml version="1.0" encoding="utf-8"?>
<!-- Generator: Adobe Illustrator 27.5.0, SVG Export Plug-In . SVG Version: 6.00 Build 0)  -->
<svg version="1.1" id="Layer_1" xmlns="http://www.w3.org/2000/svg" xmlns:xlink="http://www.w3.org/1999/xlink" x="0px" y="0px"
	 viewBox="0 0 1350 900" style="enable-background:new 0 0 1350 900;" xml:space="preserve">
<rect style="fill:#FFFFFF;" width="1350" height="900"/>
<path style="fill:#8E6D57;" d="M779.447,661.696v0.017c-16.355-0.425-32.705-0.923-49.049-1.475
	c-49.596-1.679-99.175-3.817-148.765-5.833c-5.772-0.238-11.544-0.47-17.317-0.697c-2.635-0.105-5.269-0.21-7.904-0.314
	c-8.926-0.354-17.846-0.697-26.772-1.033c-2.441-0.089-4.882-0.182-7.324-0.271c2.336-2.557,4.767-4.419,5.894-6.181
	c16.156-25.231,26.546-23.646,37.698-35.174c13.682,7.965,28.363,18.603,44.376,18.593c13.803-0.006,41.217-21.409,55.059-20.255
	c10.357,0.861,20.006,3.303,29.296,6.545c4.281,1.491,8.479,3.154,12.638,4.91c23.436,9.909,45.503,22.823,72.165,25.253
	C779.132,650.401,779.22,655.846,779.447,661.696z"/>
<g>
	<g>
		<g>
			<path style="fill:#C2F9FF;" d="M1248.839,695.21c-6.396,4.833-12.975,9.396-19.503,13.787c6.512-0.039,13.019-0.27,19.503-0.862
				v28.375c-4.402,3.502-8.805,7.004-13.212,10.512c-21.211,15.814-43.763,29.81-66.896,42.26
				c-10.092,5.43-20.569,10.964-31.324,15.642c-8.219,3.579-16.598,6.65-25.083,8.805c-28.844,7.302-58.19,4.684-87.498,4.662
				c-29.507-0.028-59.19,2.165-88.642,3.894c-6.501,0.381-12.998,0.801-19.487,1.248c-13.875,0.95-27.739,2.01-41.609,2.993
				c-12.191,0.868-24.392,1.674-36.599,2.304c-32.561,1.679-65.15,2.673-97.744,3.077c-65.299,0.818-130.604-0.53-195.87-2.734
				c-18.222-0.618-36.444-1.297-54.666-2.005c-31.368-1.226-62.731-2.552-94.099-3.827c-8.407-0.343-16.814-0.68-25.221-1.011
				c-8.926-0.354-17.846-0.696-26.772-1.032c-3.115-0.116-6.231-0.232-9.346-0.343c-56.29-2.049-112.586-3.624-168.921-3.867
				c-4.546-0.022-9.086-0.034-13.632-0.034c-11.853-0.005-1.972-12.339,1.552-16.333c0.348-0.404,0.635-0.718,0.834-0.928
				c11.119-11.98,24.447-22.104,37.886-31.384c3.601-2.486,7.214-4.916,10.793-7.302c4.894-3.264,9.849-6.462,14.842-9.589
				c-0.557-0.47-1.099-0.95-1.629-1.458c-0.022-6.225,2.563-11.235,7.761-15.03c0.762-0.778,1.541-1.546,2.314-2.309
				c-6.507-0.95-12.947-2.342-19.277-4.291c-5.678-0.227-7.169-2.972-4.468-8.236c2.281-3.01,4.568-6.015,6.855-9.026
				c7.888-8.501,16.897-16.084,26.27-23.083c-7.838,1.016-15.77,1.696-23.795,1.149c-20.907-1.425-32.423-5.828-38.013-11.567
				c-15.82-16.239,15.803-43.205,16.239-43.84c-9.628-2.436-18.902-6.009-27.435-11.306c-1.795-1.111-3.557-2.303-5.286-3.574
				c-7.192-4.573-11.743-10.898-13.665-18.968c-4.209-1.292-8.346-2.784-12.395-4.501c-12.24-5.192-30.037-15.273-30.44-31.832
				c0.768-10.042,5.181-17.93,13.246-23.674c2.16-2.27,4.319-4.546,6.479-6.816c-0.779,0.883-1.552,1.768-2.325,2.646
				c6.407-7.153,12.98-13.986,20.448-20.111c18.686-15.333,39.35-28.181,60.273-40.057c-2.596-0.883-5.181-1.839-7.744-2.866
				c-10.688-3.888-19.526-10.445-26.53-19.658c-5.021-8.048-5.22-16.234-0.602-24.542c2.353-7.528,6.749-14.184,11.704-20.083
				c8.948-10.666,18.117-20.874,28.546-29.905c3.066-2.657,6.187-5.225,9.34-7.749c-4.43-2.138-8.661-4.623-12.594-7.529
				c-11.047-8.141-18.957-21.442-11.075-35.289c9.103-15.991,29.341-23.751,45.255-28.667c7.534-3.474,14.853-7.429,22.028-11.672
				c17.41-11.461,34.202-23.939,51.562-35.483c14.472-9.628,29.12-19.107,44.481-27.104c11.423-5.949,22.9-11.798,34.423-17.543
				c46.961-23.415,94.591-45.304,142.026-67.63c37.278-17.537,82.93-19.973,122.473-10.544
				c18.145,4.325,63.852,20.973,48.243,50.043c4.435-1.657,8.887-3.275,13.35-4.844c19.885-6.971,40.504-11.771,61.168-15.355
				c25.408-4.403,52.993-3.452,78.097,2.535c13.19,2.772,25.424,7.96,36.715,15.577c8.252,6.081,14.753,15.052,14.229,24.966
				c0.723-0.154,1.442-0.314,2.166-0.469c17.884-2.684,35.82-3.171,53.81-1.464c8.098,1.337,16.195,2.668,24.293,3.999
				c13.184,2.767,25.425,7.96,36.709,15.576c11.047,8.142,18.957,21.443,11.075,35.29c-6.534,9.584-15.046,16.609-25.524,21.072
				c-2.038,0.795-4.065,1.602-6.098,2.408c0.552,0.016,1.11,0.033,1.663,0.055c2.535,0.249,5.104,0.535,7.694,0.878
				c8.098-2.138,16.223-4.17,24.37-6.103c16.079-1.475,31.55,1.16,46.397,7.888c7.43,4.413,14.859,8.832,22.288,13.245
				c18.36,13.958,33.135,33.523,41.553,55.722c1.448,3.817,2.707,7.711,3.767,11.666c1.083,4.043,1.95,8.175,2.585,12.351
				c1.254,8.252,1.597,16.687,0.884,24.994c1.447,0.111,2.894,0.227,4.346,0.365c8.098,1.331,16.196,2.668,24.288,3.999
				c16.172,3.856,37.261,10.76,47.192,26.32c5.999,9.412,4.944,18.062,0.188,25.557c26.254-4.038,39.698,58.008-40.642,90.757
				c-14.185,5.783-28.275,11.406-42.543,16.35c-16.714,5.784-33.661,10.627-51.253,13.677c-0.95,0.16-1.9,0.32-2.85,0.481
				c23.408-1.409,46.839-2.867,70.204-4.999c6.849-0.624,13.687-1.303,20.52-2.06c22.459-2.486,44.884-5.413,67.382-7.44V695.21z"/>
			<path style="fill:#FFFFFF;" d="M323.348,290.496h366.741c15.263-17.446-17.606-36.011-43.595-14.09
				c18.516-24.922-19.401-26.29-33.511-10.996c4.579-42.565-50.845-42.624-55.51-3.856c-25.5-25.555-43.102-33.097-63.64,3.742
				c-13.178-28.701-46.931-39.363-56.832-2.096c-19.973-30.892-77.277-43.14-68.948,11.055
				c-9.386-7.467-33.141-18.454-44.452-10.265C313.338,271.421,315.834,283.004,323.348,290.496z"/>
			<path style="fill:#FFFFFF;" d="M118.453,484.29h429.038c17.856-20.409-20.597-42.129-51-16.484
				c21.661-29.155-22.697-30.757-39.203-12.863c5.357-49.796-59.482-49.865-64.94-4.512c-29.831-29.896-50.424-38.719-74.451,4.378
				c-15.417-33.576-54.903-46.049-66.485-2.451c-23.366-36.141-90.404-50.468-80.66,12.933
				c-10.981-8.735-38.771-21.588-52.003-12.009C106.743,461.974,109.663,475.525,118.453,484.29z"/>
			<path style="fill:#FFFFFF;" d="M687.665,376.664h289.406c12.045-13.767-13.893-28.417-34.402-11.119
				c14.611-19.667-15.311-20.747-26.444-8.677c3.614-33.589-40.124-33.636-43.805-3.043c-20.123-20.166-34.013-26.118-50.22,2.953
				c-10.399-22.649-37.035-31.062-44.847-1.654c-15.762-24.378-60.981-34.043-54.408,8.724c-7.408-5.892-26.153-14.562-35.079-8.1
				C679.766,361.611,681.735,370.752,687.665,376.664z"/>
		</g>
		<g>
			
				<ellipse transform="matrix(0.9571 -0.2898 0.2898 0.9571 -63.0346 116.6029)" style="fill:#FFE05C;" cx="362.229" cy="271.158" rx="66.215" ry="66.214"/>
			
				<ellipse transform="matrix(0.8281 -0.5606 0.5606 0.8281 -89.7399 249.6971)" style="fill:#FFFF80;" cx="362.229" cy="271.158" rx="40.437" ry="40.437"/>
		</g>
		<g>
			<path style="fill:#84CFD3;" d="M1136.855,804.924c-8.219,3.579-16.599,6.65-25.082,8.805c-28.844,7.302-58.19,4.684-87.498,4.662
				c-29.507-0.028-59.19,2.165-88.642,3.894c-6.501,0.381-12.998,0.801-19.487,1.248c-13.875,0.95-27.74,2.01-41.609,2.993
				c-12.191,0.868-24.392,1.674-36.599,2.304c-32.561,1.679-65.15,2.673-97.744,3.077c-40.123,0.503-80.246,0.188-120.358-0.641
				c-25.176-0.519-50.347-1.243-75.512-2.094c-49.596-1.679-99.175-3.816-148.765-5.832c-8.407-0.343-16.814-0.68-25.221-1.011
				c-8.926-0.354-17.846-0.696-26.772-1.032c-3.115-0.116-6.23-0.232-9.346-0.343c-56.29-2.049-112.586-3.624-168.921-3.867
				c-4.546-0.022-9.086-0.034-13.632-0.034c-11.854-0.005-1.972-12.339,1.552-16.333c0.348-0.404,0.635-0.718,0.834-0.928
				c11.119-11.98,24.447-22.104,37.886-31.384c3.602-2.486,7.214-4.916,10.793-7.302c4.894-3.264,9.848-6.462,14.842-9.589
				c-0.558-0.47-1.099-0.95-1.63-1.458c-0.022-6.225,2.563-11.235,7.761-15.03c0.762-0.778,1.541-1.546,2.314-2.309
				c-6.507-0.95-12.947-2.342-19.277-4.291c-5.678-0.227-7.169-2.972-4.469-8.236c2.281-3.01,4.568-6.015,6.855-9.026
				c7.888-8.501,16.896-16.084,26.27-23.083c-7.838,1.016-15.77,1.696-23.796,1.149c-20.906-1.425-32.423-5.828-38.013-11.567
				c-5.96-6.12-5.187-13.765-1.878-20.945c5.463-11.881,17.847-22.498,18.117-22.895c-9.627-2.436-18.901-6.009-27.435-11.306
				c21.691-14.627,43.282-24.022,67.349-34.975c36.566-16.648,58.792-30.545,95.01-7.738c15.792,9.943,27.706,19.156,46.398,19.333
				c17.499,0.165,31.384-7.628,48.557-4.48c33.29,6.098,61.587,33.738,92.795,41.548c28.827,7.214,71.082-27.789,95.06-43.144
				c14.438-9.246,30.164-21.089,46.398-22.15c16.952-1.104,37.554,7.86,54.738,10.49c77.926,11.942,172.091-20.282,225.851,50.828
				c18.935,25.044,30.546,46.894,60.146,61.913c29.281,14.853,60.709,21.608,87.946,39.648
				C1110.866,752.478,1126.785,776.588,1136.855,804.924z"/>
			<path style="fill:#5EA6B7;" d="M773.883,693.406c-12.356,19.31-34.246,32.611-49.342,49.397
				c-19.089,21.211-41.918,31.595-64.305,48.463c-15.052,11.345-25.613,28.904-40.095,39.775c-0.099,0.077-0.204,0.149-0.304,0.226
				c-8.821-0.182-17.642-0.387-26.463-0.619c-16.355-0.425-32.705-0.922-49.049-1.475c-12.284-0.414-24.574-0.861-36.859-1.326
				c-37.3-1.403-74.601-2.988-111.907-4.507c-8.407-0.342-16.814-0.679-25.22-1.011c-8.926-0.354-17.847-0.696-26.773-1.033
				c-2.441-0.089-4.883-0.183-7.324-0.271c-0.674-0.022-1.348-0.05-2.022-0.072c-56.29-2.049-112.586-3.624-168.92-3.867
				c-4.546-0.022-9.086-0.033-13.632-0.033c-11.854-0.005-1.972-12.34,1.552-16.333c0.348-0.403,0.635-0.718,0.834-0.928
				c11.119-11.98,24.447-22.105,37.886-31.384c3.602-2.486,7.214-4.916,10.793-7.302c4.894-3.264,9.848-6.463,14.842-9.589
				c-0.558-0.47-1.099-0.95-1.629-1.458c-0.022-6.225,2.563-11.235,7.76-15.03c0.762-0.779,1.541-1.546,2.314-2.309
				c-6.507-0.95-12.947-2.342-19.277-4.292c-5.678-0.226-7.17-2.971-4.468-8.235c2.281-3.011,4.568-6.015,6.854-9.026
				c7.888-8.501,16.897-16.084,26.27-23.083c-7.838,1.016-15.77,1.695-23.796,1.149c-20.906-1.425-32.423-5.828-38.013-11.567
				c-5.96-6.12-5.187-13.765-1.878-20.945c17.642,1.403,263.058,8.771,290.985,10.252c52.18,2.767,104.985,0.596,156.476,4.529
				c1.978,0.149,3.955,0.309,5.932,0.481c10.842,0.933,21.824,0.983,32.815,0.861c16.819-0.193,33.66-0.79,50.043,0.757
				c17.493,1.652,33.351,2.552,51.457,1.657C777.633,674.366,786.399,673.841,773.883,693.406z"/>
		</g>
		<g>
			<path style="fill:#B7B16C;" d="M556.626,703.093c-10.219,5.82-18.623,15.694-24.718,25.21c0.349-10.658,3.914-21.62,6.241-31.535
				c-14.641,9.383-16.41,29.463-22.151,43.63c-3.267-2.374-7.183-5.519-11.147-7.172c-2.417,6.205,0.911,14.351,2.392,20.243
				c-4.875-4.089-9.732-8.577-15.101-11.707c0.181,8.439,2.564,16.88,2.894,25.153c-9.61-2.656-21.678-5.192-31.449-9.937
				c9.416,11.581,26.391,21.692,31.645,35.487l60.759-44.188C549.886,737.522,553.624,714.808,556.626,703.093z"/>
			<g>
				<path style="fill:#A3A29B;" d="M1248.841,695.211c-6.396,4.833-12.975,9.396-19.504,13.787
					c6.512-0.038,13.019-0.27,19.504-0.861v28.375c-4.403,3.502-8.805,7.004-13.212,10.512
					c-21.211,15.813-43.763,29.81-66.896,42.26c-10.092,5.43-20.57,10.964-31.324,15.642c-8.219,3.58-16.599,6.65-25.082,8.804
					c-28.844,7.302-58.19,4.685-87.498,4.662c-29.507-0.028-59.19,2.165-88.642,3.894c-6.501,0.381-12.997,0.801-19.487,1.248
					c-13.875,0.95-27.739,2.01-41.609,2.993c-6.573,0.47-13.157,0.917-19.736,1.331c-5.617,0.353-11.24,0.679-16.863,0.972
					c-10.169,0.525-20.349,0.978-30.529,1.375c-0.779,0.033-1.563,0.061-2.342,0.089c-0.121,0.006-0.238,0.011-0.359,0.016
					c-21.497,0.807-43.006,1.331-64.515,1.596c-49.126,0.613-98.258,0.005-147.373-1.276c-16.167-0.42-32.334-0.911-48.497-1.458
					c-18.222-0.619-36.444-1.298-54.666-2.005c0.132-0.453,0.265-0.912,0.409-1.37c2.441-8.059,6.131-17.095,10.523-26.408
					c2.309-4.905,4.811-9.887,7.423-14.836c11.445-21.702,24.983-42.829,33.677-54.6c23.205-8.291,71.419-14.975,85.819-15.703
					c-0.044-0.835-0.111-1.674-0.199-2.519c-1.552-15.571-9.363-32.031-9.053-47.132c0.381-18.565,11.566-20.294,23.05-36.472
					c1.077-1.513,1.95-3.314,2.651-5.341c7.595-21.724-3.507-69.795,16.223-77.694c7.694-3.082,31.219,8.561,41.526,7.645
					c7.17-0.635,16.93-2.359,24.028-4.055c10.18-2.43,11.334-5.512,20.376-9.495c16.073-7.081,26.773-3.408,40.068-12.428
					c9.909-6.722,23.988-16.311,32.986-24.542c12.677-11.588,12.82-19.155,24.966-22.177c2.557-0.629,5.645-1.066,9.5-1.292
					c15.51-0.917,31.545,3.983,47.962,3.988c19.94,0.005,29.147-3.994,45.972-13.936c5.413-3.203,12.605-9.832,18.471-11.599
					c7.263-2.187,12.974,1.53,21.045-0.889c13.334-3.999,18.46-16.057,31.975-22.028c13.754-6.076,28.828-1.668,42.459-11.451
					c9.097-6.528,17.968-18.299,26.486-25.48c4.419-3.728,8.175-10.379,13.333-12.632c7.705-3.369,14.986,1.707,22.575-3.364
					c9.55-6.374,13.771-20.531,20.31-30.971c1.447,3.817,2.706,7.711,3.767,11.666c1.083,4.044,1.95,8.175,2.585,12.351
					c1.254,8.252,1.597,16.686,0.884,24.994c1.447,0.111,2.894,0.227,4.347,0.365c8.098,1.331,16.195,2.668,24.287,3.998
					c16.173,3.856,37.262,10.76,47.193,26.32c3.032,4.756,4.264,9.318,4.12,13.632c-0.133,4.226-1.58,8.214-3.932,11.926
					c12.201-1.878,21.641,10.522,20.172,27.628c-0.911,10.66-6.059,23.144-17.421,35.135c-9.611,10.158-23.68,19.956-43.393,27.993
					c-14.184,5.783-28.275,11.406-42.542,16.35c-16.714,5.783-33.66,10.627-51.253,13.677c-0.95,0.16-1.9,0.32-2.85,0.481
					c23.408-1.409,46.839-2.867,70.203-4.999c6.85-0.624,13.688-1.303,20.52-2.06c22.459-2.486,44.884-5.413,67.382-7.44V695.211z"
					/>
				<g>
					<path style="fill:#7F7E77;" d="M691.397,612.453c-11.329-10.771-21.126-41.177-23.207-56.512l-11.6,39.774
						c-13.908,8.772-19.576,62.842-3.27,72.873c11.739,7.222,36.317,3.251,50.083,4.648c17.703,1.796,30.963,6.426,45.709,15.075
						c8.444-17.168,13.713-33.457,23.484-51.165c10.085-18.276,22.46-37.931,29.421-56.724
						c-14.777,10.066-30.718,21.869-47.326,28.961C735.474,617.59,708.475,603.467,691.397,612.453z"/>
					<path style="fill:#725748;" d="M802.09,580.228c-0.024,0.065-0.049,0.13-0.073,0.194c0.053-0.036,0.106-0.073,0.159-0.109
						C802.817,579.729,802.788,579.7,802.09,580.228z"/>
				</g>
				<path style="fill:#7F7E77;" d="M1248.194,483.268c-0.911,10.66-6.059,23.144-17.421,35.135
					c-6.927-0.282-15.019-0.9-17.549-0.619c-31.854,3.496-73.308,21.635-101.053,16.664c-11.715-2.099-25.347-8.462-37.787-4.651
					c-10.4,3.187-16.007,12.897-25.187,19.106c-9.567,6.468-19.172,13.096-27.762,19.056c-9.235,6.413-25.674,6.529-31.937,14.499
					l-38.118,1.657c15.471-5.413,36.02-23.402,48.194-35.46c13.638-13.505,16-31.469,25.136-42.185
					c6.346-24.923,54.589-21.437,64.217-28.419c16.344-11.842,36.797,8.181,56.346,1.657c29.23-9.749,60.074-19.056,86.68-35.997
					c-0.133,4.226-1.58,8.214-3.932,11.926C1240.224,453.761,1249.663,466.162,1248.194,483.268z"/>
				<path style="fill:#7F7E77;" d="M893.316,746.855c-11.13,27.452-24.735,54.197-37.963,81.003
					c-5.617,0.353-11.241,0.679-16.864,0.972c-10.168,0.525-20.349,0.978-30.529,1.375c-0.304-0.784-0.619-1.557-0.956-2.325
					c-3.595-8.208-9.042-15.51-17.841-21.327c-18.161-12.019-53.468-21.569-66.779-37.996c-8.053-9.931-1.359-22.773-12.77-30.313
					c-9.733-6.434-31.009-8.517-43.045-11.974c-15.013-4.314-28.888-7.75-38.709-14.538c-1.552-15.571-9.362-32.031-9.053-47.132
					c0.381-18.565,11.566-20.294,23.05-36.472c1.077-1.513,1.95-3.314,2.651-5.341c14.98,15.754,26.021,33.247,46.79,44.188
					c9.788,5.165,28.043,16.46,38.665,12.091c5.779-2.378,115.089-119.693,157.439-119.693c81.749,0,160.16-10.758,165.264-15.03
					c0.793,9.906-112.691,119.32-112.691,119.32s-132.941,38.186-124.292,38.116c4.325-0.027,28.875-10.314,33.144-13.257
					c7.413,17.62-25.339,21.592-6.714,31.125C859.341,728.461,877.176,735.245,893.316,746.855z"/>
				<path style="fill:#B7B16C;" d="M1035.655,532.999c-9.429,7.053-17.168,17.592-24.284,27.377
					c-0.16-1.857-0.536-4.013-0.666-5.925c-6.142,2.662-11.315,8.55-15.033,14.163c-3.163-8.209-4.236-16.86-4.849-25.758
					c-9.673,9.421-9.044,26.9-17.905,36.453c-5.409-3.21-11.113-6.382-16.598-9.403c-0.436,0.454-0.882,0.899-1.336,1.336
					c1.628,5.061,3.361,10.932,4.385,15.986c-8.842-3.251-17.012-9.034-25.968-12.429c1.016,8.765,7.019,18.317,14.09,24.307
					c-11.615-3.424-30.809-3.594-42.348,0.25c12.249,13.016,34.441,23.487,49.552,32.82l71.261-38.116
					C1021.034,569.528,1025.542,555.372,1035.655,532.999z"/>
				<path style="fill:#C1BEAA;" d="M844.684,480.042c-7.026,9.407-13.621,19.156-19.471,29.457
					c-4.596,8.098-9.721,22.475-17.443,28.303c-6.921,5.219-16.62,4.159-25.232,6.865c-18.681,5.872-28.225,14.615-48.055,14.593
					c-18.719-0.022-35.892,0.966-54.445,1.906c-2.298,18.874-16.372,40.89-24.945,57.301c12.008,8.953,20.106,23.027,27.805,34.886
					c-15.477,6.22-22.431,10.45-24.977,19.492c-1.348,4.773-1.464,10.893-0.961,19.36c0.503,8.424,5.28,26.402,1.281,34.428
					c-4.176,8.379-16.018,9.307-26.513,11.234c-23.199,4.259-50.927,0.818-72.546,9.026c-15.897,6.031-28.728,25.259-37.98,42.57
					c-2.143,4.016-4.099,7.926-5.849,11.544c-3.508-1.585,1.845,5.811-3.756,6.137c-6.855,0.392-4.319,12.467-4.132,20.702
					c-37.3-1.403-74.601-2.988-111.907-4.507c-8.407-0.342-16.814-0.679-25.22-1.011c-8.926-0.354-17.847-0.696-26.773-1.033
					c-2.441-0.089-4.883-0.183-7.324-0.271c2.337-2.558,4.767-4.419,5.894-6.181c16.156-25.231,26.546-23.646,37.698-35.173
					c13.682,7.965,28.363,18.603,44.376,18.592c13.803-0.006,41.217-21.409,55.059-20.255c10.357,0.862,20.006,3.303,29.297,6.545
					c11.445-21.702,24.983-42.829,33.677-54.6c23.205-8.291,71.419-14.975,85.819-15.703c-0.757-13.98-7.258-28.778-8.887-42.747
					c-0.276-2.325-0.409-4.634-0.364-6.904c0.381-18.565,11.566-20.294,23.05-36.472c12.588-17.735-2.695-74.402,18.874-83.035
					c7.694-3.082,31.219,8.561,41.526,7.645c7.17-0.635,16.93-2.359,24.028-4.055c10.18-2.43,11.334-5.512,20.376-9.495
					c16.073-7.081,26.773-3.408,40.068-12.428c9.909-6.722,23.988-16.311,32.986-24.542
					C832.394,490.631,832.537,483.064,844.684,480.042z"/>
				<path style="fill:#A3A29B;" d="M1248.841,562.404v132.807c-6.396,4.833-12.975,9.396-19.504,13.787
					c6.512-0.038,13.019-0.27,19.504-0.861v28.375c-4.403,3.502-8.805,7.004-13.212,10.512c-1.166,0.867-2.337,1.734-3.513,2.59
					c-0.326,0.243-0.651,0.48-0.978,0.713c-0.889,0.646-1.778,1.292-2.673,1.927c-0.442,0.32-0.889,0.641-1.337,0.956
					c-0.95,0.674-1.906,1.348-2.861,2.016c-0.961,0.674-1.922,1.342-2.883,2.005c-0.26,0.182-0.525,0.365-0.785,0.542
					c-0.889,0.613-1.784,1.221-2.679,1.828c-0.242,0.166-0.48,0.331-0.729,0.491c-1.01,0.685-2.027,1.365-3.043,2.044
					c-2.265,1.513-4.54,2.999-6.827,4.469c-1.238,0.796-2.48,1.585-3.723,2.369c-0.873,0.553-1.746,1.099-2.624,1.641
					c-0.271,0.177-0.547,0.348-0.828,0.519c-1.033,0.641-2.066,1.277-3.104,1.911c-0.078,0.05-0.155,0.099-0.237,0.149
					c-1.044,0.635-2.088,1.271-3.138,1.9c-1.143,0.69-2.292,1.376-3.441,2.055c-1.398,0.835-2.806,1.657-4.214,2.475
					c-1.193,0.695-2.392,1.386-3.596,2.071c-0.662,0.381-1.331,0.757-1.994,1.132c-0.58,0.332-1.154,0.658-1.735,0.978
					c-0.844,0.48-1.684,0.95-2.529,1.414c-1.072,0.602-2.143,1.193-3.215,1.778c-1.403,0.768-2.806,1.531-4.209,2.287
					c-10.092,5.43-20.57,10.964-31.324,15.642c-8.219,3.58-16.599,6.65-25.082,8.804c-16.769,4.242-33.71,5.137-50.711,5.137
					c-1.519,0-3.038-0.006-4.557-0.022c-1.315-0.011-2.63-0.022-3.944-0.044c-5.971-0.077-11.947-0.215-17.924-0.315
					c-1.181-0.017-2.358-0.033-3.535-0.044c-1.138-0.017-2.276-0.027-3.413-0.033c-1.138-0.011-2.276-0.016-3.414-0.016
					c-22.74-0.022-45.591,1.276-68.354,2.667c-6.771,0.409-13.538,0.829-20.288,1.226c-6.501,0.381-12.997,0.801-19.487,1.248
					c-10.92,0.745-21.829,1.563-32.744,2.353c-2.955,0.221-5.91,0.431-8.865,0.641c-6.573,0.47-13.157,0.917-19.736,1.331
					c-5.617,0.353-11.24,0.679-16.863,0.972c-10.169,0.525-20.349,0.978-30.529,1.375c-0.779,0.033-1.563,0.061-2.342,0.089
					c-0.121,0.006-0.238,0.011-0.359,0.016c0.127-0.177,0.249-0.348,0.376-0.524c0.453-0.635,0.911-1.276,1.37-1.906
					c0.956-1.32,1.911-2.629,2.878-3.916c0.823-1.094,1.651-2.171,2.485-3.225c0.072-0.089,0.138-0.177,0.21-0.266
					c3.17-3.999,5.883-7.208,8.048-10.075c6.523-8.633,8.064-14.201,2.094-29.076c-7.816-19.493-20.647-35.799-28.993-54.6
					c-7.484-16.869-11.566-20.603,0.044-33.318c2.187-2.397,4.507-4.728,6.904-7.026c9.213-8.804,19.586-17.001,28.22-26.032
					c13.047-13.637,15.162-19.642,33.191-20.255c18.515-0.629,19.598-1.519,29.369-17.857c6.341-10.605,35.117,5.809,43.353-3.316
					c26.259,16.549,29.238-29.035,56.541-39.403c15.687-5.96,23.977-3.579,30.202-16.941c5.761-12.384,4.104-28.49,7.827-41.432
					c5.203-18.057,11.837-11.036,28.352-14.825c10.998-2.519,21.443-10.02,33.053-11.776c13.571-2.054,27.607,1.409,39.686,5.104
					c9.026,2.762,23.442,12.51,31.987,12.875c12.875,0.552,36.118-12.848,49.303-16.603c6.269-1.784,22.238-8.573,36.433-12.649
					c-1.685,19.686-17.819,45.602-60.814,63.129c-14.184,5.783-28.275,11.406-42.542,16.35
					c-16.714,5.783-33.66,10.627-51.253,13.677c-0.95,0.16-1.9,0.32-2.85,0.481c23.408-1.409,46.839-2.867,70.203-4.999
					c6.85-0.624,13.688-1.303,20.52-2.06C1203.918,567.358,1226.343,564.431,1248.841,562.404z"/>
				<path style="fill:#C1BEAA;" d="M675.496,651.06c-10.152,4.471-20.241,9.789-30.932,13.531
					c-9.38,3.284-17.472,1.348-25.067,7.509c-1.657,26.512,11.533,52.242,5.182,65.127l88.377-26.513
					c12.487-13.759,32.484-41.846,38.171-55.183C735.721,647.152,691.578,643.977,675.496,651.06z"/>
				<path style="fill:#7F7E77;" d="M809.62,805.505c-0.458,2.69-1.066,5.391-1.668,8.18c-0.63,2.927-1.259,5.955-1.707,9.169
					c-0.287,2.061-0.497,4.204-0.591,6.447c-0.005,0.16-0.016,0.326-0.016,0.486c-0.011,0.171-0.011,0.337-0.017,0.508
					c-0.121,0.006-0.238,0.011-0.359,0.016c-5.54,0.21-11.08,0.398-16.62,0.569c-15.963,0.492-31.932,0.829-47.895,1.028
					c-49.126,0.613-98.258,0.005-147.373-1.276c-16.167-0.42-32.334-0.911-48.497-1.458c-18.222-0.619-36.444-1.298-54.666-2.005
					c0.132-0.453,0.265-0.912,0.409-1.37c2.381-1.116,4.717-2.275,7.004-3.497c21.989-11.732,44.503-19.829,69.845-23.116
					c28.308-3.673,50.314,10.981,77.528,5.391c33.362-6.854,63.565-13.488,97.518-15.217c0.823-16.763,1.43-44.392-6.374-57.748
					l69.602,48.055C811.078,789.515,811.012,797.446,809.62,805.505z"/>
				<path style="fill:#7F7E77;" d="M1248.841,695.211c-6.396,4.833-12.975,9.396-19.504,13.787
					c6.512-0.038,13.019-0.27,19.504-0.861v28.375c-4.403,3.502-8.805,7.004-13.212,10.512c-1.166,0.867-2.337,1.734-3.513,2.59
					c-0.326,0.243-0.651,0.48-0.978,0.713c-0.889,0.646-1.778,1.292-2.673,1.927c-0.442,0.32-0.889,0.641-1.337,0.956
					c-0.95,0.674-1.906,1.348-2.861,2.016c-0.961,0.674-1.922,1.342-2.883,2.005c-0.26,0.182-0.525,0.365-0.785,0.542
					c-0.889,0.613-1.784,1.221-2.679,1.828c-0.242,0.166-0.48,0.331-0.729,0.491c-1.01,0.685-2.027,1.365-3.043,2.044
					c-2.265,1.508-4.54,2.994-6.827,4.469c-1.238,0.796-2.48,1.585-3.723,2.369c-0.873,0.553-1.746,1.099-2.624,1.641
					c-0.271,0.177-0.547,0.348-0.828,0.519c-1.033,0.641-2.066,1.277-3.104,1.911c-0.078,0.05-0.155,0.099-0.237,0.149
					c-1.044,0.635-2.088,1.271-3.138,1.9c-1.143,0.69-2.292,1.376-3.441,2.055c-1.398,0.835-2.806,1.657-4.214,2.475
					c-1.193,0.695-2.392,1.386-3.596,2.071c-0.662,0.381-1.331,0.757-1.994,1.132c-0.58,0.332-1.154,0.658-1.735,0.978
					c-0.844,0.48-1.684,0.95-2.529,1.414c-1.072,0.602-2.143,1.193-3.215,1.778c-1.403,0.768-2.806,1.531-4.209,2.287
					c-10.092,5.43-20.57,10.964-31.324,15.642c-8.219,3.58-16.599,6.65-25.082,8.804c-16.769,4.242-33.71,5.137-50.711,5.137
					c-1.519,0-3.038-0.006-4.557-0.022c-1.315-0.011-2.63-0.022-3.944-0.044c-5.971-0.077-11.947-0.215-17.924-0.315
					c-1.176-0.017-2.358-0.033-3.535-0.044c-1.138-0.017-2.276-0.027-3.413-0.033c-1.138-0.011-2.276-0.016-3.414-0.016
					c-22.74-0.022-45.591,1.276-68.354,2.667c-6.771,0.409-13.538,0.829-20.288,1.226c-6.501,0.381-12.997,0.801-19.487,1.248
					c-10.92,0.745-21.829,1.563-32.744,2.353c8.794-9.378,17.267-19.431,22.962-26.369c3.093-3.767,5.998-8.479,9.025-13.234
					c4.977-7.827,10.291-15.786,17.327-19.868c13.941-8.086,40.455-9.396,56.335-11.643c16.366-2.314,30.678-5.761,46.204-8.528
					c4.275-9.208,8.258-25.11,15.571-32.457c9.169-9.208,26.353-8.368,39.443-14.034c30.506-13.196,20.393-34.186,20.1-60.704
					c21.917-4.706,42.862-12.019,63.957-19.763c14.135-5.181,35.251-17.576,49.734-19.001c8.191-0.812,16.305,3.85,24.227,9.081
					V695.211z"/>
			</g>
			<g>
				<g>
					<g>
						<path style="fill:#0D7C8E;" d="M559.253,424.158c-3.081,2.076-11.808-0.142-16.269,0.235
							c-6.19,0.522-13.449,1.865-18.942,4.456c-10.721,5.057-16.81,15.449-21.723,25.795c-1.243,2.408-3.992,6.848-4.468,8.857
							c-11.279,18.432-17.109,25.501-28.393,43.846c-5.898,9.585-13.607,19.439-8.383,30.96c4.126,9.1,15.444,16.524,24.681,20.317
							c8.462,3.474,21.067,7.508,29.272,3.423c10.143-5.049,18.357-20.965,23.924-30.683c8.697-15.183,11.701-31.448,17.247-47.641
							c4.112-12.008,11.698-27.206,12.016-39.621L559.253,424.158z"/>
						<path style="fill:#19BFF2;" d="M540.856,418.527c-21.167,4.409-49.009,21.501-54.655,45.401
							c7.563,3.831,32.197,13.609,36.185,9.29c3.156-3.417,34.616-43.306,48.8-49.735L540.856,418.527z"/>
					</g>
					<g>
						<g>
							<g>
								<g>
									<path style="fill:#FCC11A;" d="M509.29,444.068c5.408,1.507,11.164,0.206,16.612-1.142
										c7.03-1.736,14.038-3.553,21.021-5.447c1.765-0.481,3.533-0.966,5.296-1.455c1.401-0.387,2.798-0.779,4.192-1.172
										c1.091-0.305,2.177-0.614,3.266-0.924c0.132-0.039,0.267-0.076,0.398-0.115c0.497-0.142,0.992-0.282,1.489-0.429
										c1.039-0.297,2.074-0.599,3.114-0.9c0.319-0.091,0.641-0.188,0.964-0.281c0.173-0.049,0.344-0.1,0.517-0.15
										c1.176-0.347,2.346-0.693,3.523-1.043c6.303-1.869,12.584-3.808,18.845-5.806c2.786-0.89,5.573-1.793,8.354-2.71
										c1.626-0.53,3.244-1.071,4.867-1.614c1.753-0.584,3.504-1.177,5.246-1.773l2.192-0.75c3.59-1.239,7.47-2.727,9.401-5.992
										c2.584-4.369,0.646-9.903-1.324-14.57c-0.635-1.494-1.299-3.023-2.048-4.491c-1.557-3.043-3.511-5.826-6.419-7.517
										c-4.319-2.51-9.689-1.995-14.617-1.25c-0.691,0.1-1.372,0.208-2.061,0.325c-2.171,0.342-4.343,0.722-6.502,1.135
										c-0.385,0.069-0.77,0.145-1.155,0.219c-2.006,0.382-4.011,0.791-6.01,1.22c-3.467,0.738-6.921,1.551-10.36,2.409
										c-6.085,1.522-12.132,3.212-18.144,5.009c-2.039,0.607-4.071,1.23-6.105,1.86c-2.558,0.795-5.115,1.611-7.668,2.434
										c-1.943,0.629-3.884,1.262-5.823,1.904c-2.496,0.83-4.993,1.66-7.49,2.502c-5.972,2.004-12.356,3.364-17.381,6.403
										c-4.128,2.485-7.332,6.111-8.643,12.168C494.882,431.181,500.355,441.585,509.29,444.068z"/>
									<path style="fill:#9E7910;" d="M500.089,420.958c0.692-3.997,4.04-7.866,8.396-7.142
										c5.07,0.843,10.054,5.551,12.114,10.069c1.707,3.735,2.659,8.933-0.202,12.412c-2.708,3.293-6.733,2.026-9.495-0.424
										c-3.486-3.085-6.722-8.249-5.798-13.1c0.665-3.515,3.511-4.89,6.464-2.884c2.832,1.923,6.726,7.581,4.629,11.085
										c-2.56,4.282-5.937-2.716-6.587-4.826c-0.245-0.8,0.969-1.289,1.361-0.554c0.804,1.501,1.238,3.561,2.792,2.64
										c1.759-1.043-0.864-4.34-1.785-5.412c-1.457-1.693-4.004-3.896-5.058,1.642c-0.338,1.768,0.902,4.092,1.748,5.599
										c2.027,3.604,8.079,10.466,11.36,2.984c1.412-3.22-0.426-7.809-2.3-10.537c-1.911-2.784-5.427-5.581-8.737-6.431
										c-6.811-1.749-7.894,6.639-7.112,11.174c0.843,4.907,5.482,10.75,10.401,12.35c0.318,0.103,0.277,0.651-0.09,0.611
										C503.972,439.349,498.827,428.256,500.089,420.958z"/>
								</g>
							</g>
							<path style="opacity:0.4;fill:#967311;" d="M509.289,444.07c5.408,1.505,11.165,0.205,16.616-1.143
								c7.026-1.737,14.033-3.553,21.02-5.448c1.766-0.481,3.531-0.965,5.295-1.455c16.639-4.608,33.16-9.659,49.529-15.141
								c1.752-0.587,3.501-1.178,5.244-1.775c0.733-0.25,1.46-0.499,2.194-0.75c3.59-1.238,7.468-2.725,9.401-5.994
								c2.583-4.365,0.646-9.901-1.326-14.568c-0.632-1.493-1.296-3.02-2.045-4.489c-0.569,2.66-2.069,5.158-4.678,7.528
								c-1.849,1.678-4.14,3.04-6.634,4.201c-1.603,0.751-3.296,1.421-5.01,2.037c-3.771,1.352-7.639,2.452-10.89,3.64
								c-8.679,3.165-18.644,5.919-27.732,7.441c-3.73,0.625-7.511,1.414-11.308,2.211c-1.777,0.371-3.551,0.745-5.331,1.1
								c-6.449,1.293-12.902,2.379-19.204,2.469c-2.046-8.559-10.63-13.096-18.949-13.978c-4.128,2.484-7.334,6.111-8.642,12.167
								C494.882,431.18,500.356,441.588,509.289,444.07z"/>
						</g>
						<path style="fill:#39303D;" d="M590.216,409.942c1.325,4.37,2.239,8.958,2.76,13.825c1.75-0.6,3.494-1.207,5.231-1.822
							c-0.587-4.781-1.536-9.32-2.852-13.668c-0.213-0.719-0.441-1.429-0.68-2.137c-2.178-6.499-5.204-12.568-9.109-18.338
							c-0.341-0.505-0.709-1.037-1.104-1.586c-2.006,0.382-4.011,0.791-6.01,1.22c1.267,1.539,2.256,2.93,2.843,3.799
							c3.614,5.338,6.402,10.966,8.393,17.032C589.871,408.823,590.046,409.379,590.216,409.942z"/>
						<path style="fill:#39303D;" d="M557.17,418.709c1.541,4.715,2.506,9.729,2.905,15.104c0.004,0.053,0.008,0.106,0.013,0.159
							c1.861-0.507,3.722-1.016,5.577-1.535c-0.005-0.076-0.013-0.157-0.023-0.233c-0.456-5.116-1.386-9.931-2.824-14.504
							c-0.186-0.594-0.38-1.181-0.584-1.765c-2.094-6.071-5.093-11.706-9.008-17.034c-0.907-1.235-2.008-2.632-3.279-4.047
							c-2.039,0.607-4.071,1.23-6.105,1.86c2.216,2.153,3.95,4.369,4.815,5.546c3.414,4.642,6.062,9.555,7.962,14.833
							C556.808,417.627,556.994,418.166,557.17,418.709z"/>
					</g>
					<path style="fill:#FF421D;" d="M588.711,419.361c-16.724,1.993-27.768-9.656-38.802,8.24
						c-11.364,18.432-16.356,41.022-22.481,61.504c-6.613,22.115-26.829,39.108-39.225,58.572
						c5.173,8.854,9.346,18.132,13.237,27.54c0.01,0,0.021-0.002,0.031-0.002c6.21,0.108,9.268-3.459,13.85-8.239
						c13.449-14.036,27.907-24.294,45.948-31.456c9.818-3.898,21.096-10.764,31.381-11.225c2.097-9.766,4.709-19.009,9.289-28.22
						c4.208-8.461,10.883-15.606,14.991-24.118c4.505-9.338,1.377-18.486-0.505-28.529c-1.86-9.917-0.646-20.173-2.775-29.934
						L588.711,419.361z"/>
					<path style="fill:#FFB278;" d="M529.483,666.924c-7.361,0.414-14.741,1.167-22.86,2.804c-0.182,0.037-0.361,0.084-0.543,0.122
						c-2.716,4.636-10.615,17.111-15.327,33.452c-6.949,24.104-5.115,35.125-8.271,78.179c3.68,0.973,9.514,1.271,13.53-2.561
						c-1.205-12.949,33.247-80.249,44.627-112.391C536.918,666.598,533.199,666.715,529.483,666.924z"/>
					<path style="fill:#4F2D34;" d="M553.578,408.882c8.748-9.715,26.166-10.545,22.422-26.31l10.725,11.751
						c4.974,8.231,11.249,26.109,0.614,32.672c-3.692,2.278-26.802,8.813-24.408,13.716
						C555.127,433.238,542.907,420.733,553.578,408.882z"/>
					<g>
						<path style="fill:#FFB278;" d="M713.351,329.336c-10.578,12.459-42.368,50.942-49.186,57.013
							c-10.332,9.201-22.023,15.295-33.57,22.947c-2.376,1.574-4.82,2.994-7.02,4.679l12.488,21.588
							c0.174-1.118,5.895-4.415,7.802-5.878c3.55-2.725,7.436-4.837,11.078-7.378c5.755-4.012,12.963-8.585,17.782-13.869
							c7.218-7.917,36.741-41.199,48.239-70.935C719.559,335.424,714.689,331.45,713.351,329.336z"/>
					</g>
					<g>
						<path style="fill:#FF421D;" d="M646.862,398.913c-12.497,7.958-29.92,7.912-40.984,17.832l4.731,38.246
							c2.135-5.542,12.37-10.178,17.416-12.647c7.247-3.545,13.867-6.707,20.515-11.57c2-1.463,4.267-3.273,6.096-5.237
							C652.566,416.476,650.179,407.582,646.862,398.913z"/>
						<path style="fill:#FF624D;" d="M648.058,396.907l-10.976,6.404c2.418,3.401,5.614,25.895,7.489,30.559
							c2.92-1.774,9.789-6.608,10.282-10.278C655.347,419.906,649.159,401.585,648.058,396.907z"/>
					</g>
					<path style="fill:#203A49;" d="M494.546,574.795c4.929,16.647,4.145,84.801,2.895,95.327c-0.853,7.183,0.484,5.937,8.11,7.137
						c5.845,0.92,11.604,2.093,17.516,2.497c3.606,0.245,12.046,0.006,15.843-0.425c17.49-41.278,12.716-111.127,14.342-119.139
						L494.546,574.795z"/>
					<g>
						<g>
							<path style="fill:#FFB278;" d="M581.033,428.043c2.809,1.441,15.656,5.137,24.238,4.256
								c6.986-4.619,6.425-9.071,5.376-14.138c-0.121-0.588-0.591-1.075-0.806-1.701c-0.534-1.565-0.755-3.456-0.887-5.355
								c-0.147-2.079-0.174-4.157-0.37-5.825c-0.165-1.413-0.203-2.885-0.549-4.27l-31.031-5.229
								c1.975,0.446,4.624,4.553,6.727,8.481C585.081,406.794,583.147,426.854,581.033,428.043z"/>
							<path style="fill:#E5804E;" d="M577.004,395.781c1.973,0.448,4.621,4.555,6.725,8.481c2.591,1.564,5.296,2.877,8.209,4.21
								c4.047,1.858,11.722,3.267,17.016,2.632c-0.146-2.076-0.174-4.156-0.371-5.821c-0.167-1.415-0.202-2.888-0.547-4.272
								L577.004,395.781z"/>
						</g>
						<g>
							<path style="fill:#663D43;" d="M556.871,366.501l10.742,4.746l1.023,0.45c1.012-0.581,2.178-1.052,3.447-1.432
								c5.357-1.603,12.53-1.585,17.483-1.304c2.262,0.132,5.146,0.684,7.889,1.216c5.152,0.985,9.826,1.879,9.034-0.331
								c-5.891-16.452-15.97-22.609-26.826-22.647C559.515,347.133,558.694,364.414,556.871,366.501z"/>
							<path style="fill:#FFB278;" d="M565.779,382.143c1.034-2.747,1.417-5.858,1.728-8.919c0.066-0.646,0.098-1.305,0.107-1.978
								c0.042-2.887-0.325-5.946-0.212-8.79c3.03-3.607,7.188-6.484,11.156-7.767c4.63-1.496,10.696,1.347,17.229,6.271
								c5.654,4.258,9.089,7.49,14.815,13.4c4.676,4.831,6.44,18.376,6.672,25.391c0.238,7.231-17.681,8.506-23.917,8.142
								c-6.218-0.361-10.304-2.015-14.3-5.86c-0.389-0.381-0.784-0.78-1.174-1.199C571.094,393.551,568.047,387.414,565.779,382.143
								z"/>
							<g>
								<path style="fill:#5B2500;" d="M581.077,381.791c0.508,0.187,0.901,0.757,0.863,1.296c0.726-0.793,0.903-2.096,0.076-2.63
									c0.469,0.281,0.973,0.613,0.972,1.174c0.71-0.429,1.016-1.494,0.872-2.006c0.762,1.342-0.082,2.009-0.303,3.25l-1.307,3.107
									C581.466,384.838,582.407,382.632,581.077,381.791z"/>
								<g>
									<path style="fill:#E5804E;" d="M585.858,382.041c2.737,0.469,5.741,2.756,5.741,2.756c0.492,0.249,0.53,0.128,0.897,0.516
										c-3.313,2.089-5.507,4.32-7.66,7.37C582.728,390.46,579.468,380.943,585.858,382.041z"/>
									<g>
										<path style="fill:#FFFFFF;" d="M584.764,390.885c0.185-0.473,0.614-1.04,1.17-1.631c1.463-1.556,3.815-3.291,5.051-4.012
											c0.327-0.192,0.571-0.315,0.708-0.347c-0.151-0.155-0.49-0.402-0.948-0.687l-0.003-0.003
											c-1.893-1.186-5.781-3.055-6.729-1.96c-0.934,1.074-0.995,2.704-0.619,4.517
											C583.669,388.086,584.183,389.514,584.764,390.885z"/>
									</g>
									<path style="fill:#121619;" d="M583.394,386.763c0.768,1.061,1.649,1.914,2.54,2.491c1.463-1.556,3.815-3.291,5.051-4.012
										c-0.059-0.339-0.138-0.683-0.24-1.034l-0.003-0.003c-1.893-1.186-5.781-3.055-6.729-1.96
										C583.079,383.32,583.018,384.95,583.394,386.763z"/>
									<path style="fill:#FFFFFF;" d="M585.233,386.074c0.25,0.436,0.661,0.672,0.918,0.526c0.257-0.147,0.263-0.621,0.013-1.058
										c-0.25-0.436-0.661-0.671-0.918-0.525C584.99,385.163,584.983,385.637,585.233,386.074z"/>
								</g>
							</g>
							<g>
								<path style="fill:#5B2500;" d="M596.491,369.267c0.463,0.212,0.848,0.786,0.85,1.303c0.594-0.718,0.667-1.961-0.101-2.527
									c0.434,0.301,0.902,0.651,0.938,1.192c0.602-0.367,0.807-1.374,0.646-1.875c0.762,1.34,0.057,1.929-0.061,3.11l-0.96,2.911
									C597.033,372.227,597.725,370.163,596.491,369.267z"/>
								<g>
									<path style="fill:#E5804E;" d="M600.901,369.727c2.106,0.928,4.29,3.503,4.29,3.503c0.367,0.311,0.406,0.213,0.665,0.623
										c-2.744,1.206-4.623,2.752-6.527,5.023C597.841,376.526,595.982,367.556,600.901,369.727z"/>
									<g>
										<path style="fill:#FFFFFF;" d="M599.402,377.282c0.181-0.38,0.557-0.797,1.035-1.211c1.256-1.089,3.224-2.166,4.241-2.566
											c0.271-0.108,0.471-0.169,0.58-0.172c-0.107-0.164-0.353-0.445-0.692-0.781l-0.001-0.004
											c-1.396-1.398-4.301-3.772-5.122-2.991c-0.809,0.768-0.975,2.188-0.813,3.849
											C598.75,374.621,599.049,375.97,599.402,377.282z"/>
									</g>
									<path style="fill:#121619;" d="M598.63,373.405c0.524,1.078,1.151,1.992,1.806,2.666c1.256-1.089,3.224-2.166,4.241-2.566
										c-0.02-0.309-0.057-0.626-0.112-0.954l-0.001-0.004c-1.396-1.398-4.301-3.772-5.122-2.991
										C598.634,370.324,598.468,371.745,598.63,373.405z"/>
									<path style="fill:#FFFFFF;" d="M600.12,373.147c0.164,0.432,0.468,0.716,0.679,0.636c0.211-0.081,0.251-0.495,0.087-0.926
										c-0.162-0.43-0.468-0.714-0.68-0.633C599.995,372.301,599.956,372.718,600.12,373.147z"/>
								</g>
							</g>
							<path style="fill:#121619;" d="M590.084,366.186c-0.456-3.902,4.049-4.668,6.804-2.663c-1.576-0.844-2.698,0.036-3.547,1.254
								C592.952,365.336,590.367,368.077,590.084,366.186z"/>
							<path style="fill:#121619;" d="M581.037,376.049c-4.036-1.414-7.519,3.372-6.921,6.877c-0.005-1.933,1.62-2.966,3.46-3.617
								C578.421,379.011,582.953,376.804,581.037,376.049z"/>
							<path style="fill:#E5804E;" d="M603.45,385.508c-2.55-0.885-5.306-3.013-6.136-4.48c0,0,5.472,3.354,7.656,3.545
								c-0.668,1.579-0.859,3.571-3.011,3.646C602.85,387.896,603.726,386.597,603.45,385.508z"/>
							<path style="fill:#663D43;" d="M553.276,391.549c1.451,1.713,3.093,3.219,4.83,4.426c7.39,5.13,16.586,5.673,25.306,6.441
								c-5.114-6.672-11.815-9.745-13.854-18.967c-1.123-5.079,0.952-7.695,2.307-12.296c0.086-0.288,0.156-0.584,0.218-0.889
								c0.351-1.652,0.367-3.478-0.071-5.084c-0.352-1.315-1.27-6.259-1.25-6.378c0,0-1.049-0.288-2.717-0.428
								c-0.095-0.006-0.193-0.016-0.292-0.025c-1.488-0.107-3.42-0.089-5.509,0.333c-4.994,0.999-10.92,4.27-14.055,13.527
								c-1.386,4.087-0.837,8.547,0.901,12.635C550.125,387.257,551.567,389.542,553.276,391.549z"/>
							<path style="fill:#4F2D34;" d="M567.401,362.457c3.03-3.607,7.188-6.484,11.156-7.767c4.63-1.496,10.696,1.347,17.229,6.271
								l0.051-0.34c0.302-2.625-7.4-7.276-10.03-8.432c-3.966-1.737-8.6-1.075-12.416,0.568c-3.039,1.303-4.585,3.284-5.344,5.619
								C567.633,359.648,567.455,361.025,567.401,362.457z"/>
							<path style="fill:#4F2D34;" d="M553.276,391.549c1.451,1.713,3.093,3.219,4.83,4.426c7.39,5.13,16.586,5.673,25.306,6.441
								c-5.885-12.764-11.815-9.745-13.854-18.967c-1.123-5.079,0.952-7.695,2.307-12.296c0.086-0.288,0.156-0.584,0.218-0.889
								c0.351-1.652,0.367-3.478-0.071-5.084c-0.352-1.315-1.27-6.259-1.25-6.378c0,0-1.049-0.288-2.717-0.428
								c-0.095-0.006-0.193-0.016-0.292-0.025c-1.519,4.553,1.02,9.65-0.345,14.472c-1.709,6.01-7.916,11.295-14.161,12.015
								c-1.323,0.151-2.738,0.161-4.156,0.007C550.125,387.257,551.567,389.542,553.276,391.549z"/>
							<g>
								<path style="fill:#FFB278;" d="M571.735,406.171c-1.582-2.372-0.954-5.858,1.869-6.667c8.276-2.365,10.792,4.87,10.792,4.87
									c1.367,2.527-2.26,5.043-4.43,5.322C577.216,410.049,573.263,408.463,571.735,406.171z"/>
								<path style="fill:#E5804E;" d="M576.359,401.052c1.492,0.548,4.517,2.02,4.517,2.02c1.601,1.65-2.476,4.009-4.266,1.969
									c-0.8-0.912-0.368-2.502-2.053-2.292c-1.159,0.144-1.539,1.35-1.419,2.366C571.401,403.182,574.013,400.19,576.359,401.052z
									"/>
							</g>
							<g>
								<g>
									<path style="fill:#E5804E;" d="M609.367,389.456c-0.011,0.081-0.034,0.159-0.051,0.239c-0.02-0.055-0.04-0.109-0.062-0.16
										L609.367,389.456z"/>
									<path style="fill:#E5804E;" d="M602.972,393.586c1.637,0.757,3.886,2.374,5.621,1.269c0.754-0.478,1.096-1.279,1.185-2.161
										c0.105-1.029-0.133-2.159-0.462-3c-0.137,0.663-0.421,1.272-0.812,1.809C607.271,393.191,604.978,394.121,602.972,393.586z
										"/>
								</g>
								<g>
									<path style="fill:#FFFFFF;" d="M602.972,393.586c1.637,0.757,3.886,2.374,5.621,1.269c0.754-0.478,1.096-1.279,1.185-2.161
										c-0.45-0.36-0.885-0.761-1.274-1.19C607.271,393.191,604.978,394.121,602.972,393.586z"/>
								</g>
							</g>
						</g>
					</g>
					<path style="fill:#FF624D;" d="M593.853,428.122c-4.532-2.071-6.323-5.431-10.93-7.162l-3.635,7.732
						c3.051,7.228,10.929,11.087,15.493,17.136c4.228-1.83,6.591-10.72,11.38-13.618C602.44,430.642,597.86,429.953,593.853,428.122
						z"/>
					<path style="fill:#FFB278;" d="M614.491,514.236c-4.317-6.454-10.533-5.311-19.683-3.776
						c-4.723,0.793-16.723,3.816-18.791,2.644l2.276,41.022c2.674-1.365,10.572-6.005,13.448-6.449
						c0.587,1.336-0.517,18.806,5.347,38.504c7.157,24.043,11.136,25.559,31.713,63.509c3.624-1.167,10.009-0.49,11.323-5.882
						C634.63,632.84,624.089,528.585,614.491,514.236z"/>
					<path style="fill:#39303D;" d="M577.783,423.767c-5.886-6.25-13.203-9.515-21.449-9.67c-0.507,2.307-1.005,4.617-1.518,6.923
						c6.987-0.243,13.003,2.264,17.928,7.494c8.754,9.294,12.62,26.755,8.992,40.615c-9.479,36.215-53.326,44.938-72.05,48.666
						c-5.156,1.026-7.495,1.512-8.931,2.286l3.257,6.109c0.754-0.356,4.086-1.018,7.025-1.604c3.196-0.636,7.076-1.407,11.386-2.422
						c22.651-5.33,57.125-17.334,66.011-51.283C592.684,454.645,588.205,434.83,577.783,423.767z"/>
					<path style="fill:#2B4960;" d="M584.34,558.117c0.011-5.126,1.708-14.651,1.227-19.759c-0.696-7.38-1.907-15.247-3.518-23.907
						c-0.509-2.735-1.04-5.464-1.579-8.193c-5.89,1.592-11.449,3.464-17.13,6.151c-10.609,5.017-21.209,10.345-31.299,16.22
						c-4.79,2.789-9.348,5.692-13.872,8.942c-2.52,1.812-6.298,4.843-9.459,5.125l-20.059,2.639
						c-3.938,1.401-10.441,18.105-10.785,26.722c-0.543,13.606,9.597,23.614,23.26,26.3c12.03,2.366,25.054-9.848,35.624-14.932
						C546.885,578.549,567.347,573.826,584.34,558.117z"/>
					<g>
						<path style="fill:#203A49;" d="M552.87,563.122c8.343-3.446,18.06-8.398,22.642-11.635c3.094-8.782-5.317-24.469-9.459-25.097
							c-5.336-0.808-32.359,11.144-35.78,13.374c-0.239,0.154-0.421,0.299-0.541,0.431c-0.958,0.976,0.82,1.29-0.518,1.845
							l0.416,0.982l12.701,23.722C544.997,566.159,548.771,564.823,552.87,563.122z"/>
						<path style="opacity:0.4;fill:#49190D;" d="M552.87,563.122c7.101-4.8,11.415-13.154,4.766-20.348
							c-3.355-3.632-8.404-5.087-13.482-5.348c-3.327-0.174-6.089,0.345-9.244,1.18c-1.365,0.361-3.515,1.201-5.177,1.589
							c-0.577,0.136-1.1,0.216-1.505,0.198l1.402,2.629l12.701,23.722C544.997,566.159,548.771,564.823,552.87,563.122z"/>
						<path style="fill:#203A49;" d="M539.119,568.403c-4.939-0.625-5.258-1.641-7.321-5.6c-8.237-15.795-3.509-22.294-3.509-22.294
							c6.807,1.017,18.182,6.098,18.182,6.098l3.396,21.56C549.867,568.167,542.873,568.877,539.119,568.403z"/>
					</g>
					<g>
						<g>
							<g>
								<path style="fill:#E5804E;" d="M681.653,545.718l-0.605-0.25C681.156,545.592,681.371,545.669,681.653,545.718z"/>
								<path style="fill:#E5804E;" d="M704.469,549.822c-1.076-2.051-5.349-1.738-7.164-2.218c-2.761-0.73-5.337-1.653-8.133-2.166
									c-1.51-0.278-5.836,0.572-7.52,0.28l16.682,6.874C700.216,552.381,705.92,552.586,704.469,549.822z"/>
							</g>
							<g>
								<path style="fill:#E5804E;" d="M680.336,545.001l-0.616-0.221C679.833,544.899,680.052,544.966,680.336,545.001z"/>
								<path style="fill:#E5804E;" d="M703.322,548.01c-1.173-1.997-5.426-1.481-7.262-1.873c-2.792-0.597-5.409-1.396-8.226-1.776
									c-1.522-0.205-5.803,0.85-7.499,0.64l16.992,6.069C699.196,550.769,704.904,550.701,703.322,548.01z"/>
							</g>
							<path style="fill:#FFB278;" d="M693.157,547.829c-2.261-1.233-8.748-3.967-11.193-4.554c-2.641-0.632-6.925,1.627-9.683,2.71
								c-6.501,2.55-8.081,3.179-14.748-0.823c-5.63-3.379-10.139-9.334-15.332-13.435c-11.26-8.889-21.165-18.752-30.088-29.667
								c-8.758-10.71-14.355-22.648-21.512-34.508c-1.472-2.44-2.789-4.94-4.38-7.21l-22.095,11.569
								c1.11,0.221,4.163,6.075,5.544,8.042c2.573,3.661,4.52,7.633,6.905,11.378c3.767,5.92,8.031,13.314,13.109,18.351
								c11.663,11.571,25.951,21.374,39.276,30.678c10.298,7.191,25.115,21.667,38.72,20.882c6.876-0.396,11.975-4.544,17.82-7.19
								c5.633-2.551,15.539,1.952,16.708-2.128C702.726,550.12,697.169,550.019,693.157,547.829z"/>
						</g>
						<g>
							<path style="fill:#FF421D;" d="M565.879,416.515c0,0-6.563-0.023-9.819,3.825c-8.227,9.722-5.219,23.977-3.393,30.525
								c3.156,11.315,7.855,19.733,12.698,29.932c6.663-3.397,14.447-5.124,20.828-9.397c1.914-1.281,6.429-3.87,6.982-6.286
								C593.914,461.888,579.701,417.247,565.879,416.515z"/>
							<path style="fill:#FF624D;" d="M593.938,465.017c-0.37,3.417-5.087,6.695-7.071,8.346c-6.617,5.507-15.039,7.2-22.045,11.422
								c-1.775-4.203-3.509-8.207-5.205-12.157c7.197-3.399,16.931-6.766,22.356-11.275c1.255-1.046,6.14-3.802,9.648-6.563
								C593.187,460.211,594.043,464.037,593.938,465.017z"/>
						</g>
					</g>
					<g>
						<path style="fill:#1091AF;" d="M471.635,491.72c-5.913,8.596-12.168,19.629-14.514,25.818
							c2.819,11.361,21.568,23.564,26.064,21.844c5.791-2.217,24.406-30.923,26.284-35.339c0.133-0.306,0.214-0.568,0.243-0.785
							c0.291-1.616-1.668-0.926-0.719-2.307l-1.066-0.828l-28.337-18.464C477.356,483.842,474.534,487.487,471.635,491.72z"/>
						<path style="opacity:0.4;fill:#49190D;" d="M471.635,491.72c-3.782,9.351-2.453,20.953,8.894,24.928
							c5.727,2.009,11.668,0.661,16.839-2.001c3.388-1.742,5.762-3.912,8.312-6.65c1.102-1.186,2.656-3.351,4.032-4.739
							c0.477-0.481,0.938-0.871,1.35-1.086l-3.135-2.05l-28.337-18.464C477.356,483.842,474.534,487.487,471.635,491.72z"/>
						<path style="fill:#19BFF2;" d="M481.477,479.432c5.275-2.189,6.268-1.266,10.941,1.848
							c18.652,12.421,18.338,22.244,18.338,22.244c-7.379,2.846-21.965,3.915-21.965,3.915l-17.735-21.512
							C471.056,485.927,477.465,481.093,481.477,479.432z"/>
					</g>
					<path style="fill:#FF624D;" d="M609.202,414.57c0.747,6.795-1.934,11.396-3.932,17.729l0.674-0.159
						c2.406-0.855,6.664,3.18,8.158,5.175c1.189-3.691,1.038-8.813,0.523-12.671C614.166,421.201,612.756,415.076,609.202,414.57z"
						/>
					<path style="fill:#FFB278;" d="M740.75,309.664c-3.046-0.596-11.576,5.658-14.006,7.33c-0.058-2.423,0.755-7.909,3.025-9.446
						c2.169-1.469,10.322,2.378,9.358-2.729c-1.426-7.554-17.661-2.259-21.655-1.069c-1.471,7.878,0.33,19.83-4.807,26.699
						l3.502,14.886c2.923-4.733,6.57-9.192,10.703-12.875c4.057-3.617,5.079-8.074,8.503-12.211
						C737.002,318.285,748.376,311.159,740.75,309.664z"/>
					<path style="fill:#FFFFFF;" d="M496.286,777.325l-13.428-0.634c-0.213,8.299-3.266,16.124-0.636,25.212
						c11.233-1.542,22.186-3.028,33.449-6.471C511.899,792.608,494.646,781.48,496.286,777.325z"/>
					<path style="fill:#FFFFFF;" d="M640.123,643.808l-13.431,0.573c0.532,8.286-1.805,16.352,1.63,25.167
						c15.433-0.999,30.318-2.356,41.226-6.795C665.538,660.278,638.862,648.093,640.123,643.808z"/>
				</g>
				<g>
					<g>
						<path style="fill:#E5804E;" d="M741.596,302.129c-2.651-0.08-5.214-0.768-7.858-0.895c-7.604-0.37-15.979,2.309-11.678,11.264
							c2.124,4.42,8.831,9.732,13.424,11.458c5.515,2.072,11.194-1.605,14.842-6.112c2.253-2.784,11.128-13.612,10.914-15.715
							H741.596z"/>
						<path style="fill:#FFB278;" d="M873.95,209.856l-27.667-12.91c-8.801,15.416-20.927,35.429-34.695,47.898
							c-15.172,13.742-27.911,31.744-44.498,43.395c-3.28,2.304-12.939,7.181-15.454,9.96c2.404,3.655,1.994,9.519,4.366,13.096
							c39.279-18.219,78.136-47.767,104.748-82.995C863.276,224.957,874.566,211.391,873.95,209.856z"/>
						<path style="fill:#FFB278;" d="M765.605,289.469c-5.675,3.492-12.199,7.945-15.715,8.294
							c-5.268,0.524-12.79-1.748-17.898-1.746c-3.358,0.001-11.077,2.065-12.233,5.665c-0.359,1.118,1.008,6.365,2.182,6.589
							c1.746,0.334,3.711-3.839,4.705-4.767c5.413,6.059,9.067,12.76,18.006,8.784c3.346-1.488,17.055-7.328,20.954-8.414V289.469z"
							/>
						<g>
							<path style="fill:#FFB278;" d="M746.736,316.197c-1.329-3.109-6.038-0.023-7.968,2.143c1.494-2.091,3.386-5.941,0.656-7.49
								c-2.69-1.527-5.482,2.762-7.039,4.637c1.026-1.731,3.066-6.805,0.828-8.444c-1.377-1.009-3.235-0.241-4.647,1.012
								c1.928-4.353-3.245-6.432-7.379-1.451c-3.693,4.448,0.503,11.852,6.374,11.308c-0.372,3.901,2.942,4.515,6.112,4.365
								c-0.16,1.627,0.196,3.293,1.013,4.66c5.652-0.407,7.347-2.979,7.347-2.979C742.153,323.468,747.805,318.699,746.736,316.197z
								 M726.613,310.781c0.011-0.011,0.019-0.021,0.03-0.031c-0.005,0.014-0.013,0.029-0.017,0.044
								C726.466,310.957,726.462,310.953,726.613,310.781z"/>
						</g>
					</g>
					<g>
						<path style="fill:#601125;" d="M1035.711,133.737c-0.994-1.607-7.09-2.544-9.046-3.275c-3.637-1.362-7.152-3.005-10.826-4.379
							c-7.59-2.838-15.472-5.362-23.234-7.299c-3.195-0.797-7.247-1.915-10.454-1.769c-3.809,0.173-5.164,2.128-8.317,3.515
							l47.146,41.907c0.036-0.074,0.97-1.411,1.419-2.064C1025.731,155.537,1038.841,138.801,1035.711,133.737z"/>
						<g>
							<path style="fill:#7F192F;" d="M1048.555,179.251c-8.254-11.675-15.973-23.792-27.004-33.122
								c-10.348-8.752-15.167-13.297-26.982-19.923c-7.998-4.486-19.399-4.663-16.37-13.751c1.31-3.929,2.358-4.676,1.965-12.441
								c-10.478-5.893-35.667-14.81-50.665-11.859c-8.81,1.733-18.017,4.324-26.328,7.885c-6.19,2.652-15.619,11.998-20.844,11.543
								l-7.857,36.339c25.919,4.384,52.019,30.018,71.694,48.345c19.856,18.496,35.669,47.895,43.39,74.299
								c23.659-5.833,45.233-28.042,59.03-47.781C1059.656,202.947,1059.073,194.128,1048.555,179.251z"/>
							<g>
								<path style="fill:#423D32;" d="M898.47,116.064c-6.795,2.216-21.081,3.889-27.332,5.885
									c-8.91,2.846-20.126,6.676-29.415,3.706c-5.655-1.805-7.613-7.487-10.371-13.777c-4.041-9.215-1.669-15.655,4.426-18.948
									c2.24-1.21,6.085-2.872,10.775-4.735c2.344-0.935,4.894-1.922,7.558-2.929c8.619-3.256,18.425-6.743,26.145-9.414
									c2.632-0.905,5.018-1.721,7.038-2.398c3.267-1.105,5.571-1.86,6.357-2.081L898.47,116.064z"/>
								<path style="fill:#798265;" d="M890.402,108.95l-4.394,3.677c-7.598-9.093-9.45-24.516-5.752-36.776
									c2.632-0.905,5.018-1.721,7.038-2.398C882.36,84.19,883.319,100.472,890.402,108.95z"/>
								<path style="fill:#798265;" d="M856.257,122.646l-4.393,3.677c-7.878-9.43-9.58-25.664-5.31-38.129
									c2.344-0.935,4.894-1.922,7.558-2.929C848.127,95.885,848.742,113.657,856.257,122.646z"/>
							</g>
							<g>
								<path style="fill:#601125;" d="M1047.692,145.975c8.512,9.922,17.776,22.835,21.523,30.233
									c-1.995,14.527-23.727,32.232-29.558,30.69c-7.512-1.99-34.529-35.275-37.458-40.525c-0.207-0.364-0.344-0.68-0.411-0.944
									c-0.577-1.977,1.954-1.377,0.59-2.973l1.219-1.174l32.842-26.784C1039.513,136.923,1043.514,141.087,1047.692,145.975z"/>
								<path style="opacity:0.4;fill:#49190D;" d="M1047.692,145.975c5.959,11.145,5.849,25.779-7.76,32.243
									c-6.866,3.267-14.448,2.38-21.245-0.248c-4.456-1.718-7.701-4.107-11.243-7.177c-1.532-1.331-3.755-3.82-5.656-5.365
									c-0.659-0.537-1.283-0.962-1.824-1.178l3.633-2.969l32.842-26.784C1039.513,136.923,1043.514,141.087,1047.692,145.975z"/>
								<path style="fill:#7F192F;" d="M1033.792,131.977c-6.867-2.023-7.979-0.741-13.388,3.764
									c-21.583,17.96-19.882,30.158-19.882,30.158c9.572,2.561,27.887,1.948,27.887,1.948l19.231-29.166
									C1047.641,138.682,1039.011,133.513,1033.792,131.977z"/>
							</g>
							<g>
								<path style="fill:#423D32;" d="M931.955,78.115c-5.264-10.693-21.954-11.541-32.128-9.18
									c-10.901,2.531-19.476,10.927-17.59,23.01c1.229,7.876,9.45,35.408,42.205,14.608
									C932.847,101.216,936.443,87.231,931.955,78.115z"/>
								<g>
									<path style="fill:#28251F;" d="M906.167,84.255c-0.478-1.075-0.797-2.52-1.462-3.5c-0.531,1.365-0.597,2.951-0.245,4.232
										c-1.267,0.096-2.822,0.254-3.877,1.2c2.37,2.472,2.677,2.056,1.827,5.554c0.912-0.153,2.302-0.102,3.18-0.409
										c-0.057,1.045,0.315,2.134,0.308,3.185c0.921-0.572,2.114-1.311,3.03-1.882c0.123,0.368,0.974,1.844,0.897,1.535
										l2.603,1.534c0.063-1.27,1.422-2.534,3.195-2.017c-0.536-1.148-1.667-2.357-2.195-3.49
										c0.876,0.024,1.386-0.258,2.346,0.009c-1.182-0.926-2.717-1.536-4.1-2.25c0.746-0.655,1.455-1.534,2.41-1.938
										c-2.654-0.003-6.674,0.091-5.113-3.799C907.937,82.636,906.924,83.382,906.167,84.255z"/>
									<g>
										<g>
											<path style="fill:#798265;" d="M918.948,89.853c-2.596-1.605-7.149-3.606-11.402-4.223l-0.165,0.946
												c4.247,0.619,8.838,2.731,10.99,4.065c10.739,6.647,24.157,7.949,35.017,3.399l-0.47-0.874
												C942.388,97.576,929.371,96.311,918.948,89.853z"/>
										</g>
										<g>
											<path style="fill:#798265;" d="M906.546,91.357l-0.166,0.952c1.062,0.08,2.151,0.175,3.27,0.329
												c5.857,0.818,11.615,2.929,16.21,5.944c1.11,0.73,2.206,1.545,3.266,2.332c2.879,2.144,5.856,4.359,9.601,5.24
												c2.86,0.671,5.853,0.686,8.75,0.699c2.866,0.012,5.832,0.025,8.583,0.693l0.24-0.927
												c-2.884-0.699-5.919-0.714-8.855-0.726c-2.831-0.014-5.758-0.026-8.484-0.668c-3.514-0.827-6.266-2.876-9.182-5.042
												c-1.072-0.802-2.18-1.625-3.32-2.374c-4.733-3.108-10.66-5.279-16.681-6.119C908.662,91.535,907.59,91.44,906.546,91.357
												z"/>
										</g>
										<g>
											<path style="fill:#601125;" d="M948.154,103.738c1.537,0.27,2.59,1.61,2.345,3.001c-0.245,1.387-1.687,2.296-3.225,2.026
												c-1.539-0.269-2.588-1.611-2.344-3C945.171,104.375,946.615,103.468,948.154,103.738z"/>
										</g>
										<g>
											<path style="fill:#601125;" d="M946.026,93.33c1.537,0.269,2.589,1.611,2.345,3.002
												c-0.242,1.386-1.685,2.295-3.222,2.026c-1.54-0.269-2.589-1.613-2.348-3.001
												C943.044,93.968,944.487,93.061,946.026,93.33z"/>
										</g>
									</g>
								</g>
							</g>
						</g>
					</g>
					<path style="fill:#F95858;" d="M849.202,166.803c-7.593,10.582-9.15,23.703-14.898,35.359
						c-5.139,10.422-11.709,20.088-17.107,29.973c6.535,3.443,25.785,20.447,25.785,20.447s23.573-17.352,39.616-56.313
						L849.202,166.803z"/>
					<path style="fill:#FFB278;" d="M890.455,346.874c-0.983,3.611-6.06,8.302-7.985,12.426c-2.348,5.03-4.632,10.283-5.909,15.587
						c-2.272,9.433-5.596,24.42-7.06,34.194c-4.771,31.874-6.548,58.278-9.167,82.505c3.667,0.551,10.918,4.661,14.437,2.666
						c2.506-1.42,4.96-12.045,6.39-15.122c4.454-9.591,11.721-31.253,15.187-41.237c7.175-20.666,5.344-31.956,13.914-51.581
						c4.332-9.92,10.843-20.334,16.207-29.615L890.455,346.874z"/>
					<path style="fill:#110E0E;" d="M948.078,246.689l-19.643,6.548c-7.088,14.716-19.808,32.745-27.831,49.796
						c-7.883,16.752-15.797,31.76-17.838,49.477c14.332,4.909,36.14,19.867,47.337,9.722c6.39-5.79,9.036-18.843,13.066-26.489
						c5.01-9.503,11.701-18.351,16.992-27.21c8.51-14.247,19.669-30.317,23.241-46.165
						C988.024,241.847,964.894,246.689,948.078,246.689z"/>
					<path style="fill:#FFB278;" d="M979.015,401.877c-2.539-10.272-8.068-17.363-13.403-26.046
						c-6.214-10.114-4.572-16.496-0.364-27.633c1.968-5.207,4.412-10.271,7.058-15.075l-39.943-2.62
						c-2.975,8.468-10.583,20.389-7.2,29.464c3.269,8.773,27.457,60.945,34.865,79.873c2.935,7.501,4.777,14.486,6.351,22.313
						c0.645,3.209,0.628,7.697,3.819,8.328c2.233,0.442,8.454-3.562,11.177-3.878C982.416,446.056,983.854,421.454,979.015,401.877z
						"/>
					<g>
						<path style="fill:#FFB278;" d="M870.352,156.98c-1.427,3.143-8.257,7.642-7.399,8.513l-6.548,0.654
							c-4.132-2.317-6.692-9.501-12.271-8.093c-0.668,0.163-1.375,0.452-2.134,0.89c-5.906,3.392-5.893,14.079-15.06,18.007
							c-0.177,0-0.354-0.02-0.53-0.052c-1.978-0.393-3.615-2.868-5.435-4.066c-0.537,0.55-1.133,0.962-1.932,0.72
							c-1.231-0.366-1.238-1.65-1.546-2.678c-0.065-0.059-0.137-0.111-0.203-0.17c-0.066,0.066-0.132,0.131-0.197,0.184
							c-1.428,1.394-1.729,1.643-2.966,0.373c-0.144-0.151-0.327-0.32-0.537-0.51c-1.153-1.061-3.11-2.685-3.844-3.85
							c-1.46,1.257-3.464,2.062-5.075,3.241c-4.296-3.065-2.062-8.788-5.075-12.015c-2.849-3.045-7.236-2.076-10.804-6.208
							c-6.548-7.576-10.647-16.409-8.205-26.225c4.44-17.85,26.5-36.825,44.546-26.5c5.507,3.15,9.18,8.657,14.079,12.769
							c6.587,5.527,12.997,5.455,21.117,6.384c6.319,0.72,5.992,0.158,7.858,6.535c1.722,5.886,2.979,12.29,3.307,18.367
							C871.734,147.559,872.146,153.032,870.352,156.98z"/>
						<g>
							<g>
								<path style="fill:#E5804E;" d="M804.644,153.294c-0.949,0.485-1.887,1.02-2.808,1.605c-0.52,0.482-1.113,1.34-1.648,2.225
									c0.256,0.233,0.503,0.476,0.732,0.736c0.288,0.328,0.542,0.679,0.781,1.041c0.672-0.248,1.301-0.63,1.813-1.07
									c0.741-0.646,1.17-1.322,1.29-2.289C804.884,154.881,805.276,154.119,804.644,153.294z"/>
							</g>
							<g>
								<path style="fill:#FFFFFF;" d="M800.516,157.445c0.001-0.001,0.002-0.003,0.003-0.004c0.416-0.487,0.838-0.969,1.273-1.432
									c0.464-0.493,0.94-0.968,1.422-1.426c0.012-0.012,0.024-0.025,0.036-0.03c0.452-0.434,0.916-0.85,1.393-1.26
									c-0.411-1.052-1.97-1.854-3.564-1.896c-0.554-0.018-1.113,0.059-1.601,0.238c-0.19,0.066-0.369,0.148-0.536,0.255
									c-0.208,0.113-0.392,0.262-0.547,0.428c-0.917,0.969-1.14,2.038-0.99,3.044
									C798.564,155.844,799.625,156.552,800.516,157.445z"/>
								<path style="fill:#30241B;" d="M800.516,157.445c0.001-0.001,0.002-0.003,0.003-0.004c0.416-0.487,0.838-0.969,1.273-1.432
									c-0.779-1.332-1.815-2.764-2.85-4.119c-0.208,0.113-0.392,0.262-0.547,0.428c-0.917,0.969-1.14,2.038-0.99,3.044
									C798.564,155.844,799.625,156.552,800.516,157.445z"/>
								<path style="fill:#FFFFFF;" d="M799.481,155.033c0.315,0.584,0.725,0.961,0.902,0.857c0.179-0.104,0.067-0.657-0.238-1.246
									c-0.303-0.588-0.694-0.986-0.882-0.877C799.073,153.876,799.165,154.451,799.481,155.033z"/>
							</g>
						</g>
						<path style="fill:#5B2A15;" d="M801.018,143.23l2.613,2.419c0.176,0.774-5.07,9.181-6.136,11.104
							c-1.416-0.277-4.804-1.035-4.317-2.728C793.091,152.093,798.504,144.771,801.018,143.23z"/>
						<g>
							<path style="fill:#E5804E;" d="M819.736,163.311c0,4.146-1.61,5.469-2.266,6.792c-0.111,0.229-0.236,0.497-0.373,0.786
								c-1.428,1.394-1.729,1.643-2.966,0.373c-0.144-0.151-0.327-0.32-0.537-0.51C815.395,169.304,818.208,167.457,819.736,163.311
								z"/>
						</g>
						<path style="fill:#441D10;" d="M833.495,104.596c-4.239-3.999-10.382-6.094-16.05-3.928l-13.424,29.466
							c3.118,1.137,15.241,10.096,18.27,10.427c0.554-1.042,2.624-2.452,2.723-3.568c0.082-0.931-1.97-3.588-2.412-4.567
							c-1.31-2.905-2.466-5.444,0.728-7.612c4.932-3.346,18.536,2.716,23.908,2.264c2.619-3.71,3.929-5.893,4.365-9.822
							C846.084,116.01,837.303,108.188,833.495,104.596z"/>
						<g>
							<path style="fill:#2C7CB7;" d="M833.494,104.596c-4.584,16.042-47.905,42.517-48.462,42.889c0,0-31.103-52.057,22.61-56.333
								c5.461-0.432,11.767,1.519,16.921,4.662c3.057,1.859,5.709,4.145,7.536,6.594
								C832.642,103.129,833.107,103.856,833.494,104.596z"/>
							<path style="fill:#2C7CB7;" d="M797.496,137.337c-0.682-2.623-3.811-3.022-5.934-3.928c-4.599-1.963-9.27-4.227-13.734-6.222
								l-0.327,2.291c-3.509,9.305-20.756,39.849-15.715,40.607c17.352,2.61,26.562-16.91,32.65-25.619
								C795.629,142.758,798.07,139.546,797.496,137.337z"/>
							<path style="fill:#441D10;" d="M832.099,102.409c-2.992,2.415-6.142,5.094-8.84,0.871c-1.918-3.006-0.831-5.546,1.304-7.465
								C827.62,97.675,830.272,99.96,832.099,102.409z"/>
						</g>
						<path style="fill:#E5804E;" d="M842,158.945c-5.906,3.392-5.893,14.079-15.06,18.007c-0.177,0-0.354-0.02-0.53-0.052
							c6.541-4.558,9.534-12.349,11.335-19.591c2.18-8.774-0.877-20.096-4.912-28.157C840.107,133.342,842.759,158.506,842,158.945z
							"/>
						<g>
							<path style="fill:#FFB278;" d="M825.603,136.658c-6.419-4.567-5.685-20.955,3.244-15.727
								c3.311,1.939,7.004,9.438,6.239,13.871c-0.812,4.71-5.291,4.811-6.774,6.251L825.603,136.658z"/>
							<path style="fill:#E5804E;" d="M827.178,123.972l0.036,0.259c-1.086-0.114-2.32,1.791-2.216,3.29
								c0.134,1.868,1.004,2.043,2.202,2.54c1.273,0.529,6.167,3.152,2.054,4.256C823.486,135.867,821.278,121.546,827.178,123.972z
								"/>
						</g>
					</g>
					<g>
						<path style="fill:#161313;" d="M1013.559,219.187l-48.455,20.954c-15.572,21.366-45.904,65.883-42.952,98.09
							c17.53-2.081,35.421,4.876,49.858,15.321C995.157,312.7,1050.649,266.273,1013.559,219.187z"/>
						<g>
							<path style="fill:#110E0E;" d="M1015.56,307.243c-4.784,8.144-11.282,17.559-15.238,21.936
								c-9.167,2.483-23.224-7.099-23.157-11.308c0.092-5.424,16.37-31.744,19.137-35.024c0.192-0.23,0.364-0.402,0.517-0.513
								c1.12-0.893,1.133,0.916,1.902-0.39l0.899,0.489l21.262,14.47C1019.862,299.543,1017.918,303.242,1015.56,307.243z"/>
							<path style="opacity:0.4;fill:#49190D;" d="M1015.56,307.243c-5.913,6.796-14.864,10.538-20.845,3.335
								c-3.021-3.633-3.615-8.814-3.026-13.939c0.382-3.358,1.355-6.099,2.7-9.213c0.584-1.347,1.771-3.448,2.43-5.091
								c0.23-0.571,0.395-1.091,0.444-1.5l2.357,1.598l21.262,14.47C1019.862,299.543,1017.918,303.242,1015.56,307.243z"/>
							<path style="fill:#161313;" d="M1023.052,293.792c0.207-5.011-0.74-5.403-4.3-7.762c-14.193-9.415-21.385-5.124-21.385-5.124
								c-0.13,6.918,2.982,18.72,2.982,18.72l20.681,4.959C1021.031,304.584,1022.896,297.602,1023.052,293.792z"/>
						</g>
					</g>
					<path style="fill:#39303D;" d="M970.079,227.208c-0.146-2.581-0.316-5.164-0.561-7.743c-0.416,0.234-0.832,0.472-1.254,0.696
						c-14.018,7.413-31.799,9.47-46.745,8.418c-21.849-1.533-44.181-6.193-59.463-29.657c-7.169-11.007-11.091-28.091-12.844-37.892
						c-2.153,3.268-5.902,10.356-8.522,18.213c0.655,10.477,4.221,18.251,9.822,26.847c17.41,26.734,47.67,29.789,70.537,31.396
						c2.283,0.157,4.629,0.249,7.024,0.265c13.847,0.097,29.125-2.359,42.108-8.68C970.147,228.45,970.116,227.83,970.079,227.208z"
						/>
					<g>
						<path style="fill:#F95858;" d="M926.993,259.915l-0.524,0.524C926.667,260.362,926.84,260.179,926.993,259.915z"/>
						<path style="fill:#F95858;" d="M1023.383,234.247c-0.343,0.209-0.699,0.413-1.054,0.617
							c-13.878,7.777-37.051,8.841-51.988,14.302c-12.064,4.398-33.399,13.89-47.148,13.239c0,0,3.495-15.204,2.622-18.334
							c-1.396-4.99-6.2-9.26-10.482-11.79c-0.755-0.448-1.552-0.884-2.39-1.314c-8.882-4.561-21.87-8.213-30.345-11.778
							c-14.733-6.212-24.237-11.29-32.601-25.703c-3.862-6.66-5.142-22.876,0.023-27.827c7.445-7.154,25.372-5.403,12.278-40.762
							c-1.407-3.798-2.373-4.269-0.744-6.77c0.343-0.524,0.803-1.146,1.396-1.908c1.803-2.292,3.635-4.333,5.578-6.05
							c4.572-4.048,9.754-6.345,16.542-6.084c29.508,1.14,57.368,16.95,81.367,35.783c6.328,4.961,12.389,10.138,18.142,15.309
							c1.384,1.245,2.728,2.565,4.042,3.956c1.943,2.065,3.815,4.286,5.613,6.631c12.313,16.07,21.032,38.051,26.204,56.641
							C1021.597,226.558,1022.581,230.536,1023.383,234.247z"/>
					</g>
					<path style="fill:#FFFFFF;" d="M981.473,460.81l-14.407,1.309c-3.274,14.406-17.271,24.834-18.334,31.431
						c8.726-0.272,28.337-1.376,35.394-7.038C991.602,480.513,982.334,467.589,981.473,460.81z"/>
					<path style="fill:#CC4242;" d="M1022.33,234.864c-13.878,7.777-37.051,8.841-51.988,14.302
						c-12.064,4.398-33.399,13.89-47.148,13.239c0,0,3.495-15.204,2.622-18.334c-1.396-4.99-6.2-9.26-10.482-11.79
						c-0.755-0.448-1.552-0.884-2.39-1.314c16.076-7.16,32.019-22.4,39.099-31.822c14.076-18.747,13.936-38.034,14.396-59.276
						c6.328,4.961,12.389,10.138,18.142,15.309c1.384,1.245,2.728,2.565,4.042,3.956c1.943,2.065,3.815,4.286,5.613,6.631
						c12.313,16.07,21.032,38.051,26.204,56.641c0.465,3.17,0.919,6.404,1.396,9.719
						C1021.957,232.973,1022.126,233.892,1022.33,234.864z"/>
					<path style="fill:#FFFFFF;" d="M877.359,489.621l-16.37-1.965c-3.274,14.406-19.891,24.835-20.954,31.431
						c8.727-0.272,36.786-5.473,39.289-10.476C881.288,504.681,878.22,496.4,877.359,489.621z"/>
					<path style="fill:#CC4242;" d="M878.014,136.681c-1.89-3.023-9.601-20.414-13.096-23.573c0,0-7.254,3.328-9.744,4.44
						c0.686,5.445,4.827,11.767,6.47,17.168c2.292,7.53,2.961,15.961,2.947,21.609c7.324-2.287,10.58-7.283,18.376-5.729
						C882.618,147.352,879.73,139.429,878.014,136.681z"/>
					<path style="fill:#39303D;" d="M998.265,165.936c-0.433-2.549-0.888-5.097-1.418-7.632c-0.388,0.279-0.773,0.561-1.171,0.831
						c-13.106,8.925-30.549,12.945-45.52,13.561c-21.883,0.904-44.594-1.244-62.389-22.866
						c-11.367-13.809-17.533-26.676-18.735-39.661c-2.051,1.716-9.322,4.708-9.681,5.232c2.666,12.363,11.518,27.423,22.001,40.153
						c20.274,24.634,46.424,26.99,69.328,26.048c2.286-0.098,4.627-0.268,7.01-0.517c13.773-1.443,28.683-5.581,40.883-13.307
						C998.471,167.163,998.37,166.551,998.265,165.936z"/>
					<g>
						<path style="fill:#CC4242;" d="M849.014,161.264c0.06-0.034,0.123-0.064,0.184-0.098c0.004-0.044,0.011-0.09,0.014-0.136
							C849.146,161.11,849.081,161.187,849.014,161.264z"/>
						<path style="fill:#CC4242;" d="M864.917,153.706c-1.431,0.583-12.404,5.627-15.72,7.46c-0.19,2.237-0.844,4.428-1.264,6.568
							c2.867-0.779,15.937,4.587,18.949,3.325C864.647,166.347,864.917,153.706,864.917,153.706z"/>
					</g>
					<g>
						<path style="fill:#FFB278;" d="M992.168,138.864c-5.98-6.796-39.923-22.978-48.455-26.629
							c-12.805-5.479-12.989,1.537-26.029-1.706l-24.555,20.438c10.593,4.788,60.433,14.631,69.733,21.411
							c19.996,14.573,19.702,54.15,27.56,78.158c4.365,0.873,9.128-0.211,13.096-1.746
							C1005.669,216.295,1001.772,149.777,992.168,138.864z"/>
						<path style="fill:#FFB278;" d="M1008.981,249.454c-1.286-6.164-6.023-19.718-5.571-25.356l-8.59-2.431
							c-1.185,5.078-8.266,10.657-11.709,14.545c-3.407,3.849-6.221,12.769-4.649,15.212c5.534-0.232,6.102-6.923,9.09-10.197
							c0.428,7.287-7.758,22.447-4.448,23.837c3.55,2.543,7.064-10.079,8.595-13.236c1.153,5.807-3.043,18.406,1.461,19.452
							c4.607,1.286,2.978-12.93,5.254-16.653c1.106,3.692-0.1,15.649,2.582,14.811c4.381,0.054,2.021-10.684,3.768-14.938
							c1.001,2.223,2.436,12.19,5.235,8.541C1011.633,260.908,1009.499,251.938,1008.981,249.454z"/>
					</g>
					<path style="fill:#F95858;" d="M943.367,108.272c-2.191-2.909-82.649-19.351-73.83,8.149
						c4.761,14.849,21.911,20.768,36.088,24.554c6.226,1.663,17.612,7.118,24.172,4.934
						C936.849,143.561,946.124,111.935,943.367,108.272z"/>
				</g>
			</g>
		</g>
	</g>
	<path style="fill:#B7B16C;" d="M1237.54,736.793c-5.844,5.474-10.069,11.721-13.273,18.432
		c-17.836,12.511-36.489,23.806-55.534,34.058c-10.092,5.43-20.57,10.964-31.324,15.642c-8.219,3.58-16.599,6.65-25.082,8.804
		c-26.607,6.734-53.639,5.032-80.671,4.712c-6.192-8.904-13.03-17.189-20.442-25.182c18.321-2.541,37.007,7.865,53.898,11.383
		c-6.131-9.594-14.234-17.708-15.748-29.407c10.191,8.147,20.708,17.499,32.694,22.492c-2.679-21.482,0.989-47.431,16.493-64.333
		c5.728,16.93,1.265,37.494,10.274,53.976c4.298-11.522,16.472-26.298,27.921-30.733c-0.292,6.54-0.304,13.632,2.32,19.548
		c11.422-10.384,21.978-28.838,37.449-32.727c-2.778,7.396-5.496,15.587-6.463,24.028c6.17-8.302,15.14-8.727,18.306-17.653
		c3.496-9.849-2.74-26.762-8.031-34.539c9.29,8.401,15.024,20.984,20.006,32.677c4.491-3.353,8.948-8.909,12.555-12.914
		c-0.519,3.811,1.005,8.755,0.625,12.544C1221.002,742.924,1229.486,739.13,1237.54,736.793z"/>
	<path style="fill:#B7B16C;" d="M964.429,799.844c-2.436,7.269-6.662,13.599-7.954,21.216c-6.771,0.409-13.538,0.829-20.288,1.226
		c-6.501,0.381-12.997,0.801-19.487,1.248c-10.92,0.745-21.829,1.563-32.744,2.353c-2.955,0.221-5.91,0.431-8.865,0.641
		c-6.573,0.47-13.157,0.917-19.736,1.331c-5.617,0.353-11.24,0.679-16.863,0.972c-10.169,0.525-20.349,0.978-30.529,1.375
		c-0.779,0.033-1.563,0.061-2.342,0.089c-0.121,0.006-0.238,0.011-0.359,0.016c-5.54,0.21-11.08,0.398-16.62,0.569
		c-8.688-8.804-21.421-16.57-27.623-22.784c14.207,7.595,30.17,10.329,45.227,14.758c1.221,0.359,2.436,0.729,3.64,1.111
		c2.242,0.713,4.452,1.48,6.634,2.314c-1.276-1.916-2.602-3.85-3.938-5.805c-1.541-2.242-3.104-4.507-4.629-6.788
		c-2.408-3.607-4.728-7.257-6.761-10.931c2.822,0.597,5.623,1.591,8.429,2.751c3.657,1.519,7.319,3.32,11.008,4.894
		c5.805,2.48,11.699,4.413,17.808,3.822c-1.033-16.934-6.032-32.821,3.154-47.645c5.087,13.599,8.103,37.604,22.083,44.824
		c4.397-7.214,8.401-16.328,16.029-21.531c3.712,6.457,5.601,14.262,10.362,19.83c8.164-6.159,16.091-19.106,25.878-23.415
		c1.724-0.762,3.507-1.254,5.358-1.392c-1.298,8.004-3.674,16.25-4.463,24.398c10.08-2.85,16.543-15.19,27.711-16.107
		c-1.939,4.436-4.353,10.131-6.125,14.455C946.466,804.727,955.497,799.435,964.429,799.844z"/>
</g>
</svg>
