<?xml version="1.0" encoding="utf-8"?>
<!-- Generator: Adobe Illustrator 27.5.0, SVG Export Plug-In . SVG Version: 6.00 Build 0)  -->
<svg version="1.1" xmlns="http://www.w3.org/2000/svg" xmlns:xlink="http://www.w3.org/1999/xlink" x="0px" y="0px"
	 viewBox="0 0 500 500" style="enable-background:new 0 0 500 500;" xml:space="preserve">
<g id="Background">
	<rect style="fill:#FFFFFF;" width="500" height="500"/>
</g>
<g id="Objects">
	<g>
		<path style="fill:#5AC6E2;" d="M21,251C21,124.527,123.527,22,250,22c126.472,0,229,102.527,229,229
			c0,126.473-102.528,229-229,229C123.527,480,21,377.473,21,251"/>
		<g>
			<g>
				<defs>
					<path id="SVGID_1_" d="M21,251C21,124.527,123.527,22,250,22c126.472,0,229,102.527,229,229c0,126.473-102.528,229-229,229
						C123.527,480,21,377.473,21,251"/>
				</defs>
				<clipPath id="SVGID_00000126301944899169217250000009447284800852093111_">
					<use xlink:href="#SVGID_1_"  style="overflow:visible;"/>
				</clipPath>
				<g style="clip-path:url(#SVGID_00000126301944899169217250000009447284800852093111_);">
					<g>
						<path style="fill:#FFFFFF;" d="M267.267,114.125c-1.159,0-2.243,0.278-3.183,0.757c0.035-0.29,0.06-0.583,0.06-0.882
							c0-4.28-3.818-7.75-8.53-7.75c-3.982,0-7.318,2.483-8.258,5.837c-1.299-1.567-3.376-2.587-5.727-2.587
							c-3.938,0-7.132,2.854-7.132,6.375c0,0.561,0.089,1.101,0.241,1.619c-0.776-0.21-1.629-0.327-2.524-0.327
							c-3.553,0-6.433,1.828-6.433,4.084c0,2.256,1.761,3.374,5.314,3.374h36.171c3.553,0,6.433-1.574,6.433-4.75
							C273.699,116.699,270.819,114.125,267.267,114.125"/>
						<path style="fill:#FFFFFF;" d="M172.223,84.417c-0.076,0-0.151,0.006-0.228,0.008c0.024-0.212,0.04-0.426,0.04-0.644
							c0-3.146-2.678-5.697-5.981-5.697c-1.524,0-2.911,0.547-3.968,1.441c0.048-0.351,0.08-0.707,0.08-1.069
							c0-4.838-4.317-8.761-9.641-8.761c-4.962,0-9.043,3.405-9.579,7.782c-1.071-0.699-2.356-1.108-3.741-1.108
							c-3.715,0-6.727,2.935-6.727,6.555c0,0.057,0.006,0.113,0.007,0.17c-0.086-0.003-0.171-0.01-0.259-0.01
							c-4.221,0-7.643,2.545-7.643,5.685c0,3.14,2.092,4.696,6.314,4.696c0.146,0,0.297-0.006,0.444-0.009l-0.007,0.009h40.887
							c4.016,0,7.271-1.356,7.271-4.093C179.494,86.636,176.238,84.417,172.223,84.417"/>
						<path style="fill:#FFFFFF;" d="M362.9,85.269c-0.436-3.524-3.311-6.25-6.802-6.25c-1.586,0-3.042,0.568-4.205,1.513
							c0.077-0.446,0.129-0.899,0.129-1.365c0-4.817-4.299-8.722-9.601-8.722c-4.958,0-9.037,3.415-9.545,7.797
							c-1.013-0.615-2.186-0.973-3.441-0.973c-3.563,0-6.489,2.836-6.83,6.466c-0.38-0.04-0.76-0.068-1.137-0.068
							c-4.167,0-6.425,2.544-6.425,5.682c0,3.137,2.065,4.693,6.232,4.693c0.119,0,0.24-0.006,0.361-0.008l-0.006,0.008h40.711
							c3.998,0,7.239-1.318,7.239-3.977C369.582,87.531,366.637,85.459,362.9,85.269"/>
					</g>
					<g>
						<path style="fill:#083F3F;" d="M135.113,243.25h6.635C128.58,228,124.762,208,124.762,208h6.03
							c-8.03-11.75-14.884-31.5-14.884-31.5h4.424l-7.672-21.75h4.781L103.667,119l-12.5,35.75h4.5l-6.75,21.75h5
							c0,0-5,19.75-11.25,31.5h6.25c0,0-5.75,20-16,35.25h5.5c0,0-3.75,26.75-15.75,40.75h39.75h0.571h5.429h44.5
							C137.5,270,135.113,243.25,135.113,243.25"/>
						<path style="fill:#0B4F4C;" d="M229.446,243.25h6.635C222.913,228,219.095,208,219.095,208h6.03
							c-8.03-11.75-14.884-31.5-14.884-31.5h4.424l-7.672-21.75h4.781L198,119l-12.5,35.75h4.5l-6.75,21.75h5
							c0,0-5,19.75-11.25,31.5h6.25c0,0-5.75,20-16,35.25h5.5c0,0-3.75,26.75-15.75,40.75h39.75h0.571h5.429h44.5
							C231.833,270,229.446,243.25,229.446,243.25"/>
						<path style="fill:#106655;" d="M448.357,234.665h6.695c-13.287-14.646-20.874-36.854-20.874-36.854h7.819
							c-8.102-11.286-18.295-38.143-18.295-38.143h4.824l-13.898-34.335l-12.611,34.335h4.54c0,0-2.629,18.332-13.116,38.143h6.307
							c0,0-5.802,22.208-16.143,36.854h5.549c0,0-12.463,35.889-24.57,49.335h48.785h0.576h5.478H475
							C459.445,270.554,448.357,234.665,448.357,234.665"/>
						<path style="fill:#0B4F4C;" d="M98.883,245.148h5.112c-10.145-11.184-15.939-28.141-15.939-28.141h5.971
							c-6.186-8.616-13.969-29.124-13.969-29.124h3.683L73.13,161.667l-9.63,26.216h3.466c0,0-2.007,13.998-10.015,29.124h4.815
							c0,0-4.429,16.957-12.326,28.141h4.237c0,0-9.516,28.584-18.761,38.852h37.251h0.44h4.182h42.437
							C107.349,273.732,98.883,245.148,98.883,245.148"/>
						<path style="fill:#083F3F;" d="M284.247,246.605h6.958c-13.809-13.534-17.811-31.284-17.811-31.284h8.419
							c-8.419-10.428-14.51-30.956-14.51-30.956h4.639l-8.045-19.303h5.014l-14.444-28.728l-13.108,28.728h4.719l-7.079,19.303
							h5.244c0,0-5.146,20.528-11.7,30.956h6.554c0,0-3.932,17.75-14.681,31.284h5.768c0,0-3.933,24.303-16.517,36.728h39.489h0.599
							h3.596h45.567C286.75,270.908,284.247,246.605,284.247,246.605"/>
						<path style="fill:#083F3F;" d="M377.75,246.605h6.958c-13.809-13.534-17.812-31.284-17.812-31.284h8.42
							c-8.42-10.428-14.511-30.956-14.511-30.956h4.639l-8.045-19.303h5.014l-14.443-28.728l-13.108,28.728h4.719l-7.078,19.303
							h5.243c0,0-5.146,20.528-11.7,30.956h6.555c0,0-3.933,17.75-14.681,31.284h5.767c0,0-3.932,24.303-16.516,36.728h39.488h0.6
							h3.596h45.566C380.254,270.908,377.75,246.605,377.75,246.605"/>
						<path style="fill:#083F3F;" d="M491.815,246.605h6.686c-13.269-13.534-17.114-31.284-17.114-31.284h8.09
							c-8.09-10.428-13.941-30.956-13.941-30.956h4.456l-7.729-19.303h4.817l-13.878-28.728l-12.595,28.728h4.534l-6.801,19.303
							h5.037c0,0-4.944,20.528-11.241,30.956h6.297c0,0-3.778,17.75-14.105,31.284h5.542c0,0-3.778,24.303-15.869,36.728h37.941
							h0.575h3.455h43.78C494.221,270.908,491.815,246.605,491.815,246.605"/>
						<path style="fill:#106655;" d="M315.727,250.181h5.909c-11.728-12.009-15.127-31.759-15.127-31.759h7.15
							c-7.15-9.254-14.474-25.469-14.474-25.469h3.939l-6.831-18.127h4.258l-12.267-23.492l-11.133,23.492h4.008l-6.012,18.127
							h4.453c0,0-5.672,16.215-11.238,25.469h5.566c0,0-3.34,19.75-12.468,31.759h4.898c0,0-3.34,22.128-14.028,33.152h34.84h0.508
							h3.054h40.849C317.853,272.309,315.727,250.181,315.727,250.181"/>
						<path style="fill:#0B4F4C;" d="M405.06,252.767h5.91c-11.728-10.906-15.128-28.842-15.128-28.842h7.151
							c-7.151-8.403-14.475-23.129-14.475-23.129h3.939l-6.831-16.463h4.258L377.618,163l-11.133,21.333h4.008l-6.011,16.463h4.452
							c0,0-5.672,14.726-11.237,23.129h5.565c0,0-3.339,17.936-12.468,28.842h4.898c0,0-3.34,20.555-14.027,30.566h34.839h0.509
							h3.054h40.849C407.186,273.321,405.06,252.767,405.06,252.767"/>
						<path style="fill:#106655;" d="M249.143,254.649h5.506c-10.927-10.104-14.095-23.354-14.095-23.354h6.663
							c-6.663-7.784-10.691-23.108-10.691-23.108h3.671l-13.828-35.854l-12.24,35.854h4.149c0,0-2.489,15.324-7.675,23.108h5.186
							c0,0-3.112,13.25-11.617,23.354h4.564c0,0-3.112,19.409-13.07,28.684h29.665h0.475h2.845h35.266
							C251.124,274.059,249.143,254.649,249.143,254.649"/>
						<path style="fill:#106655;" d="M189.914,246.605h6.958c-13.809-13.534-17.812-31.284-17.812-31.284h8.42
							c-8.42-10.428-14.51-30.956-14.51-30.956h4.638l-8.045-19.303h5.014l-14.444-28.728l-13.108,28.728h4.719l-7.078,19.303h5.243
							c0,0-5.146,20.528-11.7,30.956h6.554c0,0-3.932,17.75-14.681,31.284h5.768c0,0-3.933,24.303-16.516,36.728h39.488h0.599h3.596
							h45.567C192.416,270.908,189.914,246.605,189.914,246.605"/>
						<path style="fill:#106655;" d="M61.247,246.605h6.958c-13.809-13.534-17.812-31.284-17.812-31.284h8.42
							c-8.42-10.428-14.51-30.956-14.51-30.956h4.638l-8.045-19.303h5.014l-14.444-28.728l-13.108,28.728h4.719l-7.079,19.303h5.244
							c0,0-5.146,20.528-11.7,30.956h6.554c0,0-3.932,17.75-14.681,31.284h5.768c0,0-3.933,24.303-16.517,36.728h39.489h0.599h3.596
							h45.566C63.75,270.908,61.247,246.605,61.247,246.605"/>
						<path style="fill:#0B4F4C;" d="M154.81,254.649h5.506c-10.927-10.104-14.095-23.354-14.095-23.354h6.663
							c-6.663-7.784-10.691-23.108-10.691-23.108h3.671l-13.828-35.854l-12.24,35.854h4.149c0,0-2.489,15.324-7.676,23.108h5.187
							c0,0-3.112,13.25-11.617,23.354h4.563c0,0-3.111,19.409-13.069,28.684h29.665h0.474h2.845h35.266
							C156.79,274.059,154.81,254.649,154.81,254.649"/>
						<path style="fill:#0B4F4C;" d="M339.81,254.649h5.507c-10.928-10.104-14.096-23.354-14.096-23.354h6.663
							c-6.663-7.784-10.69-23.108-10.69-23.108h3.671l-13.829-35.854l-12.239,35.854h4.149c0,0-2.489,15.324-7.676,23.108h5.187
							c0,0-3.112,13.25-11.617,23.354h4.563c0,0-3.111,19.409-13.069,28.684h29.665h0.475h2.845h35.266
							C341.791,274.059,339.81,254.649,339.81,254.649"/>
					</g>
					<g>
						<path style="fill:#1D9167;" d="M166.25,272.833c-0.406,0-0.798,0.055-1.178,0.141c-0.057-2.376-1.918-4.285-4.267-4.442
							c0.005-0.096,0.028-0.186,0.028-0.281c0-2.945-2.388-5.333-5.333-5.333c-0.324,0-0.637,0.04-0.945,0.095
							c-0.933-1.549-2.615-2.595-4.555-2.595c-2.945,0-5.333,2.388-5.333,5.333c0,0.501,0.091,0.976,0.22,1.436
							c-0.799-0.478-1.722-0.769-2.72-0.769c-1.229,0-2.346,0.432-3.247,1.129c0.045-0.26,0.08-0.523,0.08-0.796
							c0-2.531-2.052-4.583-4.583-4.583c-0.176,0-0.342,0.032-0.512,0.051c-0.063-2.891-2.416-5.218-5.322-5.218
							c-1.79,0-3.365,0.89-4.332,2.242c-0.795-0.661-1.803-1.075-2.918-1.075c-1.521,0-2.86,0.75-3.694,1.892
							c-0.781-0.449-1.674-0.726-2.639-0.726c-0.406,0-0.798,0.055-1.178,0.141c-0.057-2.376-1.918-4.285-4.267-4.442
							c0.005-0.096,0.028-0.186,0.028-0.281c0-2.945-2.388-5.334-5.333-5.334c-2.596,0-4.753,1.857-5.23,4.313
							c-0.669-0.301-1.406-0.479-2.187-0.479c-2.945,0-5.333,2.388-5.333,5.333c0,0.367,0.038,0.726,0.108,1.072
							c-1.39,0.328-2.562,1.196-3.294,2.375c-0.969-0.993-2.317-1.613-3.814-1.613c-2.945,0-5.333,2.388-5.333,5.333
							c0,0.501,0.091,0.976,0.22,1.436c-0.799-0.478-1.722-0.769-2.72-0.769c-1.229,0-2.346,0.432-3.247,1.129
							c0.045-0.26,0.08-0.523,0.08-0.796c0-2.531-2.052-4.583-4.583-4.583c-0.176,0-0.342,0.032-0.512,0.051
							c-0.063-2.891-2.416-5.218-5.322-5.218c-1.79,0-3.365,0.89-4.332,2.242c-0.795-0.661-1.803-1.075-2.918-1.075
							c-1.521,0-2.86,0.75-3.694,1.892c-0.781-0.449-1.674-0.726-2.639-0.726c-0.406,0-0.798,0.055-1.178,0.141
							c-0.055-2.313-1.825-4.171-4.087-4.414c0.002-0.049,0.015-0.094,0.015-0.143c0-1.516-0.639-2.876-1.653-3.847
							c-0.972-1.016-2.332-1.654-3.847-1.654c-2.945,0-5.333,2.389-5.333,5.334c0,0.161,0.033,0.314,0.047,0.472
							c-2.277,0.227-4.064,2.095-4.12,4.419c-0.38-0.086-0.771-0.141-1.177-0.141c-0.966,0-1.858,0.276-2.64,0.725
							c-0.833-1.142-2.172-1.892-3.694-1.892c-1.114,0-2.123,0.414-2.917,1.076c-0.968-1.354-2.542-2.242-4.333-2.242
							c-2.906,0-5.259,2.327-5.321,5.218c-0.171-0.02-0.337-0.052-0.512-0.052c-2.531,0-4.583,2.053-4.583,4.584
							c0,0.273,0.034,0.536,0.08,0.796v19.87h166.42l0.688-7.956c0.134-0.467,0.228-0.95,0.228-1.46
							C171.583,275.221,169.195,272.833,166.25,272.833"/>
						<path style="fill:#1D9167;" d="M506.583,256.833c-2.945,0-5.333,2.388-5.333,5.334c0,0.501,0.091,0.976,0.221,1.436
							c-0.799-0.478-1.723-0.77-2.721-0.77c-1.229,0-2.346,0.433-3.247,1.13c0.046-0.26,0.08-0.523,0.08-0.796
							c0-2.531-2.052-4.584-4.583-4.584c-0.175,0-0.342,0.032-0.512,0.052c-0.063-2.891-2.416-5.218-5.321-5.218
							c-1.79,0-3.365,0.889-4.333,2.242c-0.794-0.662-1.803-1.076-2.917-1.076c-1.522,0-2.86,0.75-3.694,1.892
							c-0.781-0.448-1.674-0.725-2.64-0.725c-0.405,0-0.798,0.055-1.178,0.141c-0.053-2.211-1.665-4.025-3.783-4.395
							c-0.036-3.386-2.79-6.121-6.186-6.121c-3.417,0-6.186,2.77-6.186,6.187c0,0.489,0.061,0.963,0.17,1.417
							c-0.207-0.029-0.413-0.061-0.628-0.061c-2.125,0-3.863,1.579-4.149,3.625c-0.68-0.313-1.429-0.5-2.226-0.5
							c-2.946,0-5.334,2.388-5.334,5.333c0,0.574,0.114,1.117,0.282,1.636c-0.354-0.074-0.719-0.116-1.096-0.116
							c-1.592,0-3.006,0.714-3.983,1.822c-0.979-1.144-2.413-1.884-4.036-1.884c-1.229,0-2.346,0.433-3.247,1.13
							c0.046-0.26,0.08-0.523,0.08-0.796c0-2.531-2.052-4.584-4.583-4.584c-0.175,0-0.342,0.032-0.512,0.052
							c-0.063-2.891-2.416-5.218-5.321-5.218c-1.22,0-2.329,0.425-3.228,1.113c-0.394-2.898-2.871-5.134-5.878-5.134
							c-3.168,0-5.75,2.485-5.92,5.612c-2.058,0.451-3.6,2.278-3.6,4.471c0,0.083,0.02,0.162,0.024,0.245
							c-0.614-0.247-1.281-0.391-1.983-0.391c-2.945,0-5.333,2.388-5.333,5.334c0,0.501,0.091,0.976,0.221,1.436
							c-0.799-0.478-1.723-0.77-2.721-0.77c-1.229,0-2.346,0.433-3.247,1.13c0.046-0.26,0.08-0.523,0.08-0.796
							c0-2.531-2.052-4.584-4.583-4.584c-0.175,0-0.342,0.032-0.512,0.052c-0.063-2.891-2.416-5.218-5.321-5.218
							c-1.79,0-3.365,0.889-4.333,2.242c-0.794-0.662-1.803-1.076-2.917-1.076c-1.522,0-2.86,0.75-3.694,1.892
							c-0.781-0.448-1.674-0.725-2.64-0.725c-0.405,0-0.798,0.055-1.178,0.141c-0.053-2.211-1.665-4.025-3.783-4.394
							c-0.036-3.386-2.79-6.121-6.185-6.121c-3.416,0-6.188,2.77-6.188,6.187c0,0.489,0.063,0.963,0.17,1.417
							c-0.207-0.029-0.413-0.061-0.628-0.061c-2.125,0-3.863,1.579-4.149,3.625c-0.68-0.313-1.429-0.5-2.226-0.5
							c-2.946,0-5.334,2.388-5.334,5.333c0,0.574,0.114,1.117,0.282,1.636c-0.354-0.074-0.719-0.114-1.094-0.114
							c-2.851,0-5.157,2.24-5.306,5.053c-1.974,0.154-3.553,1.654-3.823,3.593c-0.68-0.313-1.429-0.5-2.226-0.5
							c-2.946,0-5.334,2.388-5.334,5.333c0,2.359,1.543,4.338,3.667,5.041l-1.25,5.584h192.417v-27.333
							C511.917,259.221,509.529,256.833,506.583,256.833"/>
					</g>
					<rect x="4" y="280" style="fill:#4BD16E;" width="515" height="208"/>
					<g>
						<g>
							<path style="fill:#1D9167;" d="M446.449,308.919c-0.648-0.673-1.867-0.611-3.095,0.028c1.319-2.862,1.089-5.784-0.668-6.81
								c-1.456-0.851-3.536-0.156-5.257,1.561c-0.797-3.042-2.771-5.198-5.086-5.198c-2.657,0-4.869,2.838-5.364,6.599
								c-1.321-1.751-3.036-2.643-4.36-2.087c-1.529,0.645-2.031,3.012-1.331,5.604c-1.235-0.945-2.633-1.202-3.49-0.518
								c-1.114,0.891-0.889,3.027,0.505,4.772c0.916,1.146,2.104,1.824,3.129,1.913l0.006,0.028l20.458,0.208v-0.018
								c0.99,0.01,2.236-0.538,3.297-1.56C446.801,311.894,447.363,309.868,446.449,308.919"/>
							<path style="fill:#1D9167;" d="M411.833,360.958c-0.573-0.548-2.416-0.25-4.291,1.459c1.166-2.328,1.428-4.499-0.125-5.334
								c-1.287-0.691-3.125,0.792-4.5,2.792c-0.706-2.474-1.963-6.958-4.01-6.958c-2.349,0-3.136,3.899-3.574,6.958
								c-0.916-2.333-2.208-4.25-4.5-3.292c-1.337,0.56-1.452,2.393-0.833,4.5c-0.542-0.958-2.625-2.416-3.951-1.359
								c-0.956,0.763-0.785,3.462,0.447,4.882c0.809,0.932,2.214,1.66,3.12,1.731l17.735,0.017v-0.014
								c0.876,0.008,1.975-0.438,2.914-1.269C411.686,363.811,412.642,361.73,411.833,360.958"/>
							<path style="fill:#1D9167;" d="M79.449,301.586c-0.648-0.674-1.867-0.612-3.095,0.027c1.319-2.861,1.09-5.783-0.668-6.81
								c-1.455-0.85-3.536-0.155-5.255,1.561c-0.798-3.042-2.773-5.198-5.087-5.198c-2.657,0-4.87,2.837-5.364,6.598
								c-1.323-1.75-3.036-2.644-4.361-2.086c-1.529,0.644-2.031,3.013-1.331,5.604c-1.235-0.945-2.633-1.203-3.49-0.519
								c-1.115,0.892-0.889,3.027,0.505,4.772c0.916,1.146,2.103,1.825,3.128,1.913l0.006,0.029l20.459,0.208l-0.001-0.019
								c0.991,0.01,2.236-0.537,3.297-1.56C79.801,304.561,80.364,302.535,79.449,301.586"/>
							<path style="fill:#1D9167;" d="M210.884,438.294c-0.574-0.548-2.417-0.25-4.292,1.459c1.167-2.328,1.428-4.499-0.125-5.334
								c-1.287-0.691-3.125,0.792-4.5,2.792c-0.705-2.474-1.962-6.958-4.009-6.958c-2.348,0-3.137,3.899-3.574,6.958
								c-0.917-2.333-2.208-4.25-4.5-3.292c-1.337,0.56-1.452,2.393-0.833,4.5c-0.542-0.958-2.625-2.416-3.951-1.359
								c-0.957,0.763-0.786,3.462,0.447,4.882c0.809,0.932,2.213,1.66,3.12,1.732l17.735,0.017v-0.014
								c0.876,0.008,1.976-0.438,2.914-1.269C210.738,441.147,211.692,439.066,210.884,438.294"/>
							<path style="fill:#1D9167;" d="M137.5,408.938c-0.857-0.685-3.703-0.695-4.937,0.25c0.7-2.592,0.327-5.317-1-6.311
								c-1-0.75-3.866-1.19-5.188,0.561c1.437-3.5-0.375-4.689-1.563-5.314c-1.711-0.9-3.754,0.291-4.847,2.479
								c-0.903-2.403-2.631-3.916-4.505-3.916c-2.561,0-4.667,3.204-4.931,7.315c-0.752-2.451-1.73-3.94-3.779-3.94
								c-2.657,0-4.5,3.189-3.063,6.686c-1.322-1.75-3.5-3.373-5.755-2.237c-1.482,0.747-2.032,3.013-1.331,5.605
								c-1.235-0.945-2.432-1.488-3.289-0.804c-1.114,0.891-0.5,3.564,0.063,4.436c0.756,1.177,1.344,2.446,2.369,2.535l0.006,0.028
								l17.476,0.17c0.055,0.002,0.115,0.021,0.169,0.021l-0.001,0.018l1.862-0.018l1.952,0.018v-0.018
								c0.059,0,0.125-0.02,0.185-0.022l16.46-0.168l0.005-0.028c1.026-0.089,2.213-0.768,3.128-1.913
								C138.38,412.626,138.615,409.828,137.5,408.938"/>
						</g>
						<g>
							<path style="fill:#1D9167;" d="M66.622,324.751c0.289-0.095,0.867,1.209,1.085,2.092c0.218,0.879-0.012,0.972-0.311,1.028
								c-0.298,0.057-0.552,0.055-0.762-0.788C66.425,326.242,66.333,324.846,66.622,324.751"/>
							<path style="fill:#1D9167;" d="M70.919,322.742c0.299-0.052,0.891,1.912,1.114,3.192c0.222,1.28-0.008,1.393-0.307,1.444
								c-0.299,0.053-0.554,0.024-0.777-1.256C70.727,324.843,70.621,322.794,70.919,322.742"/>
							<path style="fill:#1D9167;" d="M76.52,324.13c0.295,0.07,0.126,1.851-0.135,2.95c-0.261,1.1-0.515,1.103-0.81,1.033
								c-0.296-0.07-0.521-0.188-0.26-1.287C75.576,325.727,76.225,324.06,76.52,324.13"/>
							<path style="fill:#1D9167;" d="M226.865,398.753c0.291-0.088,0.981,1.349,1.272,2.312c0.29,0.962,0.07,1.084-0.221,1.173
								c-0.29,0.088-0.542,0.106-0.832-0.855C226.792,400.42,226.574,398.841,226.865,398.753"/>
							<path style="fill:#1D9167;" d="M231.681,397.104c0.267,0.097,0.062,1.802,0.027,2.873c-0.058,1.071-0.263,1.141-0.578,1.148
								c-0.291,0.007-0.583-0.049-0.519-1.226C230.654,398.709,231.375,396.992,231.681,397.104"/>
							<path style="fill:#1D9167;" d="M236.994,397.609c-0.007,0.151-0.2,0.361-0.249,0.951c-0.093,0.611-0.27,1.356-0.452,1.921
								c-0.364,1.13-0.619,1.115-0.908,1.021c-0.289-0.093-0.503-0.23-0.139-1.359c0.183-0.565,0.476-1.27,0.76-1.825
								c0.144-0.294,0.345-0.581,0.576-0.705C236.814,397.484,236.981,397.541,236.994,397.609"/>
							<path style="fill:#1D9167;" d="M244.861,399.988c0.211,0.193-0.525,1.547-0.926,2.416c-0.42,0.863-0.637,0.839-0.929,0.723
								c-0.272-0.107-0.517-0.264-0.052-1.219C243.408,400.931,244.623,399.77,244.861,399.988"/>
							<path style="fill:#1D9167;" d="M256.39,420.027c0.285-0.062,0.982,1.594,1.422,2.63c0.427,1.045,0.254,1.196-0.028,1.327
								c-0.269,0.125-0.543,0.183-0.994-0.921C256.322,421.959,256.078,420.094,256.39,420.027"/>
							<path style="fill:#1D9167;" d="M260.81,418.369c0.292,0.034,0.396,1.913,0.437,3.096c0.029,1.186-0.191,1.267-0.5,1.285
								c-0.298,0.019-0.569-0.03-0.6-1.267C260.105,420.242,260.498,418.333,260.81,418.369"/>
							<path style="fill:#1D9167;" d="M268.375,421.875c0.26,0.158-0.287,1.53-0.772,2.324c-0.482,0.794-0.719,0.709-0.978,0.551
								s-0.443-0.329,0.04-1.123C267.148,422.833,268.115,421.717,268.375,421.875"/>
							<path style="fill:#1D9167;" d="M289.112,390.877c0.152-0.021,0.363,0.516,0.645,1.192c0.281,0.68,0.656,1.49,0.968,2.11
								c0.641,1.226,0.541,1.394,0.272,1.572c-0.233,0.158-0.55,0.27-1.257-1.085c-0.343-0.68-0.634-1.621-0.733-2.395
								C288.903,391.492,288.965,390.898,289.112,390.877"/>
							<path style="fill:#1D9167;" d="M294.148,390.498c0.154,0.004,0.27,0.555,0.436,1.249c0.161,0.697,0.39,1.534,0.588,2.18
								c0.413,1.279,0.284,1.426-0.011,1.558c-0.258,0.116-0.585,0.174-1.044-1.242c-0.218-0.709-0.342-1.661-0.308-2.423
								C293.84,391.055,293.999,390.494,294.148,390.498"/>
							<path style="fill:#1D9167;" d="M301.86,392.614c0.235,0.18-0.424,1.55-0.884,2.383c-0.469,0.83-0.697,0.772-0.971,0.631
								c-0.267-0.138-0.476-0.307,0.018-1.179C300.511,393.567,301.612,392.427,301.86,392.614"/>
							<path style="fill:#1D9167;" d="M389.384,382.621c0.276-0.126,1.194,1.29,1.638,2.259c0.442,0.971,0.242,1.124-0.034,1.251
								c-0.275,0.126-0.523,0.176-0.967-0.794C389.577,384.368,389.107,382.747,389.384,382.621"/>
							<path style="fill:#1D9167;" d="M396.125,381.125c0.29,0.091-0.016,1.895-0.361,2.999c-0.345,1.105-0.599,1.092-0.889,1.001
								s-0.506-0.225-0.161-1.329C395.06,382.691,395.835,381.034,396.125,381.125"/>
							<path style="fill:#1D9167;" d="M407.375,326.75c0.282-0.113,1.583,2.1,2.267,3.57c0.685,1.473,0.505,1.666,0.233,1.805
								c-0.272,0.139-0.526,0.171-1.223-1.325C407.955,329.302,407.093,326.863,407.375,326.75"/>
							<path style="fill:#1D9167;" d="M415,326.5c0.311-0.037,0.715,1.863,0.697,3.1c-0.007,1.232-0.274,1.287-0.572,1.275
								c-0.309-0.012-0.534-0.087-0.527-1.274C414.614,328.415,414.707,326.534,415,326.5"/>
							<path style="fill:#1D9167;" d="M422.741,327.995c0.268,0.145-0.22,1.561-0.668,2.389c-0.448,0.828-0.689,0.756-0.957,0.611
								c-0.267-0.145-0.459-0.307-0.01-1.135C421.555,329.031,422.475,327.851,422.741,327.995"/>
						</g>
					</g>
				</g>
			</g>
			<g>
				<g>
					<path style="fill:#1D9167;" d="M439.666,463.332c0,12.703-85.107,23.001-190.093,23.001
						c-104.986,0-190.093-10.298-190.093-23.001c0-12.703,85.107-22.999,190.093-22.999
						C354.559,440.333,439.666,450.629,439.666,463.332z"/>
					<ellipse style="fill:#1D9167;" cx="53.455" cy="396.405" rx="7.205" ry="2.449"/>
					<ellipse style="fill:#1D9167;" cx="193.896" cy="396.405" rx="7.205" ry="2.449"/>
				</g>
				<path style="fill:#1D9167;" d="M399.553,444.561c-0.857-0.684-3.703-0.695-4.938,0.25c0.7-2.592,0.327-5.317-1-6.311
					c-1-0.75-3.866-1.19-5.188,0.561c1.437-3.5-0.375-4.689-1.563-5.314c-1.711-0.9-3.754,0.291-4.847,2.48
					c-0.903-2.403-2.631-3.916-4.506-3.916c-2.56,0-4.666,3.204-4.931,7.316c-0.752-2.451-1.729-3.941-3.778-3.941
					c-2.658,0-4.5,3.189-3.063,6.686c-1.321-1.75-3.5-3.373-5.755-2.237c-1.482,0.747-2.032,3.013-1.331,5.604
					c-1.235-0.945-2.433-1.488-3.289-0.804c-1.114,0.891-0.5,3.564,0.063,4.436c0.756,1.177,1.344,2.446,2.369,2.535l0.006,0.028
					l17.476,0.17c0.055,0.002,0.114,0.021,0.169,0.021l-0.001,0.017l1.862-0.018l1.951,0.018v-0.017c0.06,0,0.125-0.02,0.185-0.023
					l16.46-0.168l0.005-0.028c1.025-0.089,2.213-0.768,3.128-1.913C400.432,448.25,400.668,445.452,399.553,444.561"/>
				<path style="fill:#1D9167;" d="M113.7,447.767c-0.414-0.493-1.787-0.501-2.382,0.181c0.338-1.867,0.158-3.83-0.482-4.546
					c-0.483-0.54-1.866-0.857-2.504,0.404c0.693-2.521-0.181-3.377-0.754-3.827c-0.826-0.648-1.812,0.21-2.339,1.786
					c-0.436-1.731-1.27-2.82-2.174-2.82c-1.235,0-2.252,2.308-2.379,5.269c-0.363-1.766-0.835-2.838-1.823-2.838
					c-1.283,0-2.171,2.296-1.478,4.815c-0.638-1.26-1.689-2.43-2.777-1.611c-0.715,0.538-0.98,2.17-0.642,4.037
					c-0.596-0.682-1.174-1.072-1.587-0.579c-0.538,0.642-0.241,2.566,0.031,3.195c0.365,0.848,0.648,1.762,1.144,1.826l0.002,0.021
					l8.433,0.122c0.026,0.001,0.056,0.015,0.082,0.015l0,0.013l0.898-0.014l0.941,0.014v-0.013c0.029,0,0.061-0.014,0.09-0.017
					l7.943-0.12l0.003-0.021c0.495-0.064,1.067-0.553,1.509-1.378C114.124,450.424,114.238,448.408,113.7,447.767"/>
			</g>
		</g>
		<g>
			<path style="fill:#AF4C1B;" d="M349.333,383.333H203.666H60.333c0,0,46.667-96.333,55-155.333c0,0,97,7.333,160.667-3.667
				L349.333,383.333z"/>
			<path style="fill:#D89723;" d="M270.256,225.262l72.359,158.071h6.718L276,224.334
				C274.114,224.659,272.197,224.968,270.256,225.262"/>
			<path style="fill:#BC7622;" d="M281.77,236.843L276,224.334c-1.886,0.325-3.803,0.634-5.744,0.928l7.775,16.984
				C279.316,240.467,280.57,238.67,281.77,236.843z"/>
			<path style="fill:#E8AD2A;" d="M115.333,228c-8.333,59-55,155.333-55,155.333h143.333C263,272.667,276,224.333,276,224.333
				C212.333,235.333,115.333,228,115.333,228"/>
			<path style="fill:#D89723;" d="M225.221,229.487c2.58,5.917,2.374,12.937,1.094,19.169c-2.059,10.032-6.454,19.547-11.484,28.414
				c-10.846,19.118-25.327,36.452-41.926,50.827c-19.563,16.942-43.294,30.789-69.429,33.664
				c-9.964,1.097-22.449,0.236-30.792-5.263c-7.191,16.381-12.351,27.034-12.351,27.034h143.333
				C263,272.667,276,224.333,276,224.333C260.432,227.023,242.87,228.614,225.221,229.487z"/>
			<path style="fill:#471A10;" d="M258.667,383h26.666l2.667-0.333c0,0-7.333-53.667-8.667-67.667
				c-1.333-14-5.666-52.333-5.666-52.333s-9,92.333-13,105C256.667,380.333,258.667,383,258.667,383"/>
			<path style="fill:#BC7622;" d="M258.667,383l-13.333-5.667c0,0,24.666-59,28.333-114.666
				C273.667,262.667,276,334.667,258.667,383"/>
			<path style="fill:#D89723;" d="M285.333,383.667H296c0,0-15-60.334-22.333-121C273.667,262.667,274,341.667,285.333,383.667"/>
			<path style="fill:#471A10;" d="M60.575,382.896c-0.243-0.136-0.547-0.047-0.679,0.195c-0.04,0.071-3.971,7.154-7.631,10.937
				c-0.191,0.198-0.187,0.514,0.012,0.707c0.097,0.094,0.222,0.14,0.348,0.14c0.131,0,0.261-0.05,0.359-0.151
				c3.753-3.878,7.624-10.853,7.787-11.148C60.905,383.332,60.817,383.029,60.575,382.896"/>
			<rect x="49.833" y="379.5" style="fill:#84300F;" width="3.917" height="16.375"/>
			<path style="fill:#AF4C1B;" d="M53.22,377.708h-2.856c-1.098,0-1.989,0.658-1.989,1.471c0,0.5,0.548,0.904,1.224,0.904h4.386
				c0.676,0,1.224-0.404,1.224-0.904C55.208,378.366,54.318,377.708,53.22,377.708"/>
			<path style="fill:#471A10;" d="M53.583,391.417h-3.708c-0.208,0-0.375-0.168-0.375-0.375s0.167-0.375,0.375-0.375h3.708
				c0.207,0,0.375,0.168,0.375,0.375S53.791,391.417,53.583,391.417"/>
			<path style="fill:#471A10;" d="M203.873,382.896c-0.275-0.136-0.62-0.047-0.77,0.195c-0.045,0.071-4.502,7.154-8.652,10.937
				c-0.218,0.198-0.212,0.514,0.013,0.707c0.11,0.094,0.252,0.14,0.394,0.14c0.148,0,0.296-0.05,0.408-0.151
				c4.255-3.878,8.645-10.853,8.829-11.148C204.248,383.332,204.147,383.029,203.873,382.896"/>
			<rect x="192" y="379.5" style="fill:#84300F;" width="3.917" height="16.375"/>
			<path style="fill:#AF4C1B;" d="M195.386,377.708h-2.856c-1.098,0-1.989,0.658-1.989,1.471c0,0.5,0.548,0.904,1.224,0.904h4.386
				c0.676,0,1.224-0.404,1.224-0.904C197.375,378.366,196.484,377.708,195.386,377.708"/>
			<path style="fill:#471A10;" d="M195.75,391.417h-3.708c-0.208,0-0.375-0.168-0.375-0.375s0.167-0.375,0.375-0.375h3.708
				c0.207,0,0.375,0.168,0.375,0.375S195.957,391.417,195.75,391.417"/>
			<path style="fill:#471A10;" d="M348.505,382.63c0.217-0.207,0.566-0.254,0.78-0.107c0.063,0.043,6.396,4.303,11.432,5.963
				c0.265,0.087,0.355,0.349,0.203,0.584c-0.074,0.115-0.192,0.203-0.325,0.253c-0.14,0.052-0.293,0.061-0.428,0.017
				c-5.165-1.701-11.4-5.896-11.663-6.074C348.288,383.119,348.289,382.835,348.505,382.63"/>
			<rect x="358.125" y="374.5" style="fill:#84300F;" width="3.917" height="16.375"/>
			<path style="fill:#AF4C1B;" d="M358.655,372.708h2.855c1.099,0,1.989,0.658,1.989,1.471c0,0.5-0.548,0.904-1.224,0.904h-4.386
				c-0.676,0-1.224-0.404-1.224-0.904C356.667,373.366,357.557,372.708,358.655,372.708"/>
			<path style="fill:#471A10;" d="M358.291,386.417H362c0.207,0,0.375-0.168,0.375-0.375s-0.168-0.375-0.375-0.375h-3.709
				c-0.207,0-0.375,0.168-0.375,0.375S358.084,386.417,358.291,386.417"/>
		</g>
		<g>
			<g>
				<path style="fill:#994710;" d="M317.125,131.875c0,0-4.278,7.426-8.326,10.838c-4.049,3.412-7.799,8.287-6.549,11.912
					s7.375,2.25,7.125,3.75s-5.75,4.75-3.375,7.375s15.125,8.625,15.125,8.625L327,140.25C327,140.25,336,128.625,317.125,131.875"
					/>
				<path style="fill:#CE8024;" d="M394.25,233.5h-63.875v-27.875h47.25c9.182,0,16.625,7.443,16.625,16.625V233.5z"/>
				<path style="fill:#CC6F12;" d="M403,179.625h-19.688v27.968l20.521,0.779c0,0,6.371-1.474,6.478-11.701
					C410.436,184.865,407.375,180.004,403,179.625"/>
				<path style="fill:#E59013;" d="M389.917,200.544h14.166c1.917,0,2.779-2.443,2.729-7.218c-0.063-5.935-1.375-8.649-3.146-8.945
					c-0.827-0.136-13,0-13,0L389.917,200.544z"/>
				<path style="fill:#AF5D14;" d="M389.917,200.544h14.166c0,0-0.875-0.441-0.896-4.44c-0.021-4.105,0.479-4.638,0.479-4.638
					c-0.827-0.077-13,0-13,0L389.917,200.544z"/>
				<path style="fill:#E8AD2A;" d="M403.667,184.381H383.25v23.991h20.583c0,0-5.646-0.399-4.021-17.067
					C400.135,187.999,402.25,184.928,403.667,184.381"/>
				<path style="fill:#E8AD2A;" d="M399,208.372h-93.5c0,0-6.689,0.591-4.458-15.59c1.458-10.574,5.458-13.157,5.458-13.157H403
					c0,0-6.25,0.369-7.625,12.549C394.018,204.201,399,208.372,399,208.372"/>
				<path style="fill:#E59013;" d="M391.466,186.021c-6.248,4.103-12.884,7.373-20.14,9.276
					c-14.607,3.833-30.067,4.963-45.132,4.745c-4.404-0.064-19.933,0.086-25.423-4.898c-1.282,13.75,4.729,13.229,4.729,13.229H399
					c0,0-4.982-4.171-3.625-16.198c1.375-12.18,7.625-12.549,7.625-12.549h-3.083C397.336,182.156,394.145,184.261,391.466,186.021z
					"/>
				<path style="fill:#331407;" d="M376.218,179.625c-6.394,12.293-2.875,24.681-1.396,28.747h8.589
					c-4.804-9.445-0.748-23.291,1.194-28.747H376.218z"/>
				<path style="fill:#331407;" d="M323.491,179.625c-8.736,12.216-5.997,26.209-5.401,28.747h8.17
					c-3.211-10.636,3.881-24.444,6.333-28.747H323.491z"/>
				<path style="fill:#CE8024;" d="M398.843,302.207l-6.028,4.255c-0.611,0.432-1.341,0.663-2.088,0.663h-45.482
					c-1.999,0-3.62-1.621-3.62-3.62v-61.51c0-1.999,1.621-3.62,3.62-3.62h48.51c1.999,0,3.62,1.621,3.62,3.62l3,57.254
					C400.375,300.426,399.804,301.528,398.843,302.207"/>
				<path style="fill:#A35413;" d="M327.743,211h51.348c8.784,0,11.034,9.125,11.042,12.908l2.588,82.294
					c0.153,7.944-6.243,14.465-14.188,14.465h-62.399c-7.944,0-14.341-6.52-14.189-14.465l1.219-63.13
					C303.443,228.592,313.261,211,327.743,211"/>
				<path style="fill:#CC8E79;" d="M290.833,265.75c0,0-7.96,18.762-0.416,20.917c7,2,10.916-2.75,14.75-9.167
					c3.833-6.417,6.666-21.667,6.666-21.667s-7.666-5.333-7.916-5.333S290.833,265.75,290.833,265.75"/>
				<path style="fill:#E0A58C;" d="M399,248.5c0,0,7.75,13.167,10.667,20.75c2.916,7.583-3.292,15.125-7.792,13.125
					c-6.932-3.081-17.208-26.542-17.208-26.542L399,248.5z"/>
				<path style="fill:#331407;" d="M315.875,444.875H333v19.375c0,0.875,0.375,2.125-5,2.125h-35.875c-4.5,0-4.25-7-1.75-9.5
					s23.875-7.375,24.125-8.25S315.875,444.875,315.875,444.875"/>
				<path style="fill:#E8E8E8;" d="M288.621,462.464c0.163,2.104,1.219,3.911,3.504,3.911H328c5.375,0,5-1.25,5-2.125v-2.084
					L288.621,462.464z"/>
				<path style="fill:#F2F2F2;" d="M307.375,450.958c0,0,1.125-1.083,3.375-0.958c0,0,1.167,3.75,1.333,4.333
					c0.167,0.584-1.916,2.042-3.083,1C308.417,454.292,307.667,451.625,307.375,450.958"/>
				<path style="fill:#F2F2F2;" d="M304.375,451.875c0.13,0.552,1.25,4.25,1.833,4.417c0.584,0.166,2.51-0.148,2.625-0.959
					c0.084-0.583-1.291-3.958-1.458-4.375C307.208,450.542,304.208,451.167,304.375,451.875"/>
				<path style="fill:#331407;" d="M376.225,444.875H359.1v19.375c0,0.875-0.375,2.125,5,2.125h35.875
					c7.167,0,7.338-9.125,0.275-12.311c-6.178-2.789-22.4-5.564-22.65-6.439S376.225,444.875,376.225,444.875"/>
				<path style="fill:#E8E8E8;" d="M405.326,462.457l-46.227-0.291v2.084c0,0.875-0.375,2.125,5,2.125h35.875
					C403.081,466.375,404.868,464.658,405.326,462.457"/>
				<path style="fill:#F2F2F2;" d="M386.063,450.021c0,0-1.228-1.035-3.478-0.897c0,0-1.314,4.712-1.48,5.363
					c-0.167,0.651,1.916,2.28,3.083,1.117C384.77,454.441,385.77,450.766,386.063,450.021"/>
				<path style="fill:#F2F2F2;" d="M389.063,450.896c-0.152,0.611-1.465,4.69-1.879,5.141c-0.579,0.63-2.797,0.327-2.913-0.579
					c-0.083-0.65,1.579-4.91,1.746-5.376C386.184,449.616,389.188,450.396,389.063,450.896"/>
				<path style="fill:#5D3221;" d="M316.25,305.5c0,0-0.75,1.625-1,3.5s-2.5,138.625-2.5,138.625s9.25,4.375,21.125,1L337.625,328
					h16l5,119.75c0,0,9.5,1.625,21.625-1.25l-1.473-137.758L378,304.25L316.25,305.5z"/>
				<path style="fill:#512B1E;" d="M342.786,303.22v15.712c0,3.44,5.775,2.826,6.145-1.229c0.368-4.055,0.614-15.343,0.614-15.343
					L342.786,303.22z"/>
				<path style="fill:#512B1E;" d="M315.25,309c-0.036,0.272-0.114,3.377-0.222,8.469c5.593-3.867,8.311-8.131,9.472-11.002
					l-8.639,0.031C315.639,307.144,315.379,308.036,315.25,309"/>
				<path style="fill:#512B1E;" d="M378.777,308.742l-0.582-3.363l-12.853,0.054c4.117,5.506,9.178,9.228,13.533,12.383
					L378.777,308.742z"/>
				<path style="fill:#D7A476;" d="M345.784,210.897c0,0,24.853,0.389,29.439,0.389c4.588,0,7.798,4.59,14.385,16.073
					c7.059,12.308,12.106,21.695,12.106,21.695s-10.502,7.028-16.728,10.141l-8.175-10.141l-57.835-5l-3.933,13.435l-18.694-9.011
					c0,0,11.601-25.914,14.435-30.966C314.553,210.794,321.639,210.897,345.784,210.897"/>
				<path style="fill:#CE896B;" d="M316.135,239.824c-0.693-3.002-0.791-5.96-0.72-9.034c0.078-3.322,0.136-6.459,0.95-9.698
					c0.73-2.909,1.628-5.842,1.54-8.845c-3.524,0.943-5.596,2.545-7.121,5.265c-2.834,5.052-14.435,30.966-14.435,30.966
					l18.694,9.011l3.155-10.777C317.487,244.421,316.675,242.16,316.135,239.824z"/>
				<path style="fill:#CE896B;" d="M389.608,227.358c-4.806-8.377-7.814-13.073-10.871-15.007c2.52,6.951,1.239,15.288,0.683,22.388
					c-0.354,4.507-0.564,10.066-2.284,14.717l7.851,9.738c6.227-3.112,16.728-10.141,16.728-10.141S396.667,239.667,389.608,227.358
					z"/>
				<path style="fill:#D7A476;" d="M378.303,226.687c0,0,0.886,61.665,1.146,62.508c0.718,2.305,4.131,4.785,3.639,7.406
					c-0.245,1.311-2.323,2.872-3.339,4.842c-1.017,1.971-0.972,4.351-0.972,7.3h-64.01c0,0,0.163-5.209-0.328-6.192
					c-0.491-0.982-4.639-3.44-4.146-5.242c0.49-1.803,2.785-2.949,2.785-10.65c0-7.7,0.819-60.463,0.819-60.463L378.303,226.687z"/>
				<rect x="341.915" y="217.102" style="fill:#CE896B;" width="5.897" height="88.855"/>
				<path style="fill:#CE896B;" d="M317.993,263.693c2.285,0.736,6.521,0.744,8.848,0.744c2.122,0,6.502-0.015,8.847-0.763v-24.43
					h-17.694V263.693z"/>
				<path style="fill:#B27059;" d="M326.841,264.438c0.564,0,1.294-0.002,2.097-0.018v-25.175h-4.194v25.179
					C325.523,264.436,326.245,264.438,326.841,264.438"/>
				<path style="fill:#C17E67;" d="M317.993,240.624c2.285,1.42,6.521,2.245,8.848,2.245c2.122,0,6.502-0.839,8.847-2.281v-2.963
					h-17.694V240.624z"/>
				<rect x="323.838" y="228.354" style="fill:#A9779C;" width="5.351" height="5.35"/>
				<path style="fill:#CE896B;" d="M352.806,263.693c2.285,0.736,6.521,0.744,8.848,0.744c2.122,0,6.502-0.015,8.847-0.763v-24.43
					h-17.694V263.693z"/>
				<path style="fill:#B27059;" d="M361.653,264.438c0.564,0,1.294-0.002,2.097-0.018v-25.175h-4.194v25.179
					C360.336,264.436,361.058,264.438,361.653,264.438"/>
				<path style="fill:#C17E67;" d="M352.806,240.624c2.285,1.42,6.521,2.245,8.848,2.245c2.122,0,6.502-0.839,8.847-2.281v-2.963
					h-17.694V240.624z"/>
				
					<rect x="358.191" y="227.736" transform="matrix(0.7071 -0.7071 0.7071 0.7071 -57.2341 322.6646)" style="fill:#5D3221;" width="5.368" height="5.368"/>
				<path style="fill:#EFCAAB;" d="M344.375,222.625l-1.458-0.125c-3.359,0-11.105-10-5.917-10.879v-7.788h14.999v5.822
					C358.313,212,348.802,222.625,344.375,222.625"/>
				<path style="fill:#E0A58C;" d="M345.689,210.401c1.941-0.137,4.209-0.335,6.31-0.918v-5.651H337v5.877
					C339.879,210.07,342.76,210.608,345.689,210.401z"/>
				<path style="fill:#331407;" d="M343.481,292c0-0.746,0.604-1.352,1.352-1.352c0.747,0,1.352,0.605,1.352,1.352
					s-0.605,1.352-1.352,1.352C344.086,293.352,343.481,292.746,343.481,292"/>
				<path style="fill:#EFCAAB;" d="M344.204,206.49L344.204,206.49c-15.922,0-28.204-5.693-28.204-21.615l-0.625-34.777
					c0-6.021,4.881-10.902,10.902-10.902h46.757l-0.409,39.304C372.625,194.422,360.127,206.49,344.204,206.49"/>
				<path style="fill:#E0A58C;" d="M330.1,152.428c4.747-0.143,8.899-1.904,13.607-0.324c4.886,1.641,11.298,3.05,16.35,1.121
					c2.235-0.853,4.182-1.656,6.623-1.501c2.083,0.131,4.142,0.489,6.217,0.67l0.138-13.199h-46.757
					c-4.615,0-8.551,2.872-10.142,6.922C320.243,149.206,325.122,152.578,330.1,152.428z"/>
				<polygon style="fill:#B27059;" points="343.688,221.125 342,218.333 339.188,221.125 344.063,222.062 348.813,221.187 
					346,218.562 344.438,221.125 				"/>
				<path style="fill:#BDC3C7;" d="M344,223.5c0,0-8.25,7.75-11.75,30.25s-0.375,40.75-0.375,40.75S343,279.25,345.75,254.75
					S344,223.5,344,223.5"/>
				<path style="fill:#AF2323;" d="M334.099,244.621c-0.693,2.73-1.325,5.761-1.849,9.129c-0.105,0.679-0.205,1.354-0.299,2.024
					l12.145,8.953c0.685-3.125,1.258-6.452,1.653-9.978c0.064-0.576,0.12-1.133,0.179-1.689L334.099,244.621z"/>
				<path style="fill:#AF2323;" d="M341.967,272.795l-11.007-7.527c-0.367,5.193-0.424,9.955-0.323,14.061l7.025,4.739
					C339.098,280.938,340.61,277.156,341.967,272.795"/>
				<path style="fill:#AF2323;" d="M337.132,235.206l9.476,7.639c0.164-6.536-0.32-11.057-0.914-14.078l-3.834-2.608
					C340.564,228.028,338.84,230.963,337.132,235.206"/>
				<path style="fill:#ECF0F1;" d="M345.192,226.42c0,0,7.499,7.386,10.347,28.477c2.848,21.091-0.36,38.096-0.36,38.096
					s-10.304-7.618-13.054-36.243C339.922,233.811,345.192,226.42,345.192,226.42"/>
				<path style="fill:#CC2929;" d="M352.99,242.477l-11.285,8.464c0.086,1.816,0.222,3.748,0.42,5.81
					c0.182,1.896,0.399,3.692,0.643,5.408l12.555-8.754C354.693,249.208,353.882,245.584,352.99,242.477"/>
				<path style="fill:#CC2929;" d="M356.668,276.483c0.091-3.463,0.063-7.341-0.174-11.507l-11.327,8.934
					c0.995,3.591,2.101,6.567,3.206,9.014L356.668,276.483z"/>
				<path style="fill:#CC2929;" d="M345.192,226.42c0,0-2.867,4.033-3.486,15.36l8.17-7.818
					C347.401,228.603,345.192,226.42,345.192,226.42"/>
				<path style="fill:#AF2323;" d="M344.525,220.133c-4.107-0.2-4.388-0.491-5.278,0.246c-0.891,0.737-0.203,5.816,0.962,7.209
					c1.165,1.393,6.504,1.229,7.601,0.246c1.096-0.983,2.229-6.226,1.545-7.127C348.669,219.805,347.883,220.297,344.525,220.133"/>
				<path style="fill:#C17E67;" d="M335.167,225.334c0,0-5-2.833-4.75-10.667c0.25-7.833,6.583-7.979,6.583-7.979v4.954
					c0,0-2,0.442-0.417,2.442c1.584,2,5.417,4.25,5.417,4.25L335.167,225.334z"/>
				<path style="fill:#C17E67;" d="M351.917,205.584l0.082,4.071c0,0,2.918,1.762-1.166,5.179c-4.083,3.417-4.833,3.729-4.833,3.729
					l7,6.688c0,0,5-3.917,6.75-9.917S356.583,204.251,351.917,205.584"/>
				<path style="fill:#8E725E;" d="M314.513,302.75c0.4,1.335,0.255,5.992,0.255,5.992h64.01c0-2.327-0.02-4.296,0.468-5.992
					H314.513z"/>
				<path style="fill:#331407;" d="M314.513,302.75c0.4,1.335,0.255,5.992,0.255,5.992h64.01c0-2.327-0.02-4.296,0.468-5.992
					H314.513z"/>
				<rect x="337.375" y="302.375" style="fill:#BABCBF;" width="15.875" height="6.5"/>
				<path style="fill:#512B1E;" d="M333.875,448.625l0.177-5.685c-8.387,0.588-16.194-0.069-21.213-0.712
					c-0.057,3.432-0.089,5.397-0.089,5.397S322,452,333.875,448.625"/>
				<path style="fill:#512B1E;" d="M358.398,442.32l0.227,5.43c0,0,9.5,1.625,21.625-1.25l-0.052-4.865
					C374.097,442.507,364.277,442.454,358.398,442.32"/>
				<path style="fill:#8E725E;" d="M296.35,248.478l18.694,9.011l1.693-5.786c-6.598-3.299-14.294-7.147-17.826-8.913
					C297.387,246.161,296.35,248.478,296.35,248.478"/>
				<path style="fill:#E0A58C;" d="M300,241.417c0,0-11.667,19.749-14.417,30.083s-0.833,13.416,4.834,15.166
					c5.666,1.75,8.916-2.082,12.5-10.082c3.583-8,4.083-11.168,4.083-11.168L300,241.417z"/>
				<path style="fill:#8E725E;" d="M398.717,243.563l-17.464,11l3.733,4.632c6.227-3.112,16.728-10.141,16.728-10.141
					S400.605,246.992,398.717,243.563"/>
				<path style="fill:#331407;" d="M323.333,211.5c0,0-6.333,6.667-7.666,27.833c-1.334,21.167-2.167,23-2.167,23l-0.333,20.834
					c0,0-7.084-3-6.5-23.75c0.583-20.75,1.083-32.084,2.416-38.084C310.417,215.333,314.667,208.5,323.333,211.5"/>
				<path style="fill:#331407;" d="M377.167,211.667c0,0-0.917-1.833-4.5-2.083c-3.584-0.25-5.334,0.666-5.834,2.083
					c-0.5,1.417-1.916,19.333-1,33.333c0.917,14,2.084,29.75,16.084,42.5l3.583-5.584c0,0-9.417-11.416-11-24.416
					S373.083,211.334,377.167,211.667"/>
				<path style="fill:#EFCAAB;" d="M405.25,269.125c0.859,0.693,3.458,2,4.417,0.125c0,0,4.583,8.125-4.292,14.375
					s-21.5-11.25-25.625-18.25L382,243.5C382,243.5,398.52,263.691,405.25,269.125"/>
				<path style="fill:#EFCAAB;" d="M388.5,254.125c-0.429-9.78-4.5-16.792-8.917-17.375c-4.416-0.583-16.666-0.75-16.416,3.583
					c0.25,4.334,3.666,4.084,5.916,4.334s3.917,7.916,1.75,8.916c-2.166,1-7.5,0.75-7.583,4.75c-0.083,4,5,3.5,7.333,3.334
					c2.334-0.167,3.334-0.167,4.167,1.666c0.833,1.834,3.75,4.417,8.833,3.084C388.667,265.083,388.75,259.833,388.5,254.125"/>
				<path style="fill:#EFCAAB;" d="M375.063,242.938c0,0-4.313,0.063-8.75,0.125c-4.439,0.063-5.375,6.563,0.061,6.563h8.564"/>
				<path style="fill:#EFCAAB;" d="M373.813,255.75c0,0-5.313-0.061-8.439-0.25c-3.125-0.186-3.875-5.75,1.001-5.875
					c4.874-0.125,8.313-0.125,8.313-0.125"/>
				<path style="fill:#EFCAAB;" d="M295.75,251.917c0.429-9.78,3.917-13.75,8.333-14.333C308.5,237,319.5,236,319.25,240.334
					c-0.25,4.333-4.291,4.499-6.541,4.749s-3.917,7.917-1.75,8.917c2.167,1,7.5,0.75,7.583,4.75c0.084,4-5,3.5-7.333,3.333
					c-2.333-0.166-4.64-0.29-4.167,1.667c0.625,2.583-0.542,5.25-6.625,2.25C295.703,263.676,295.5,257.625,295.75,251.917"/>
				<path style="fill:#EFCAAB;" d="M306.729,243.355c0,0,4.311,0.063,8.75,0.125s5.375,6.563-0.061,6.563h-8.564"/>
				<path style="fill:#EFCAAB;" d="M307.979,256.167c0,0,5.311-0.061,8.439-0.25c3.125-0.187,3.875-5.75-1.002-5.875
					c-4.873-0.125-8.311-0.125-8.311-0.125"/>
				<path style="fill:#994710;" d="M317.75,140c0,0,6.125,7.875,12.625,10s8.5-3.5,6.125-7.625c0,0,5.625,6.625,16,7.5
					s6.25-7.5,6.25-7.5s2.625,2.75,11.25,3.125c0,0-2.625,14.125,4.75,19.125s9.625-10.375,7.875-23.375s-57.25-10-57.25-10
					S314.25,135.5,317.75,140"/>
				<path style="fill:#5D3221;" d="M308.799,142.713c0,0,40.282-7.035,75-0.306c0,0,0.383-2.906,0.153-4.206
					c-0.229-1.3,2.905-1.3,3.364-10.017c0.459-8.718-8.889-26.337-32.441-26.184c-23.553,0.153-41,12.125-48.523,21.442
					c-5.3,6.563-2.448,12.848-0.611,13.918C307.575,138.431,308.951,138.278,308.799,142.713"/>
				<path style="fill:#512B1E;" d="M383.952,138.201c0,0-2.506-3.9-37.071-3.594c-21.339,0.189-32.936,2.592-38.691,4.404
					c0.442,0.669,0.677,1.732,0.609,3.702c0,0,40.282-7.035,75-0.306C383.799,142.407,384.181,139.501,383.952,138.201"/>
				
					<rect x="356.685" y="115.312" transform="matrix(0.7071 -0.7071 0.7071 0.7071 20.3169 292.3414)" style="fill:#E59013;" width="12.672" height="12.672"/>
				
					<rect x="358.88" y="117.507" transform="matrix(0.7071 -0.7071 0.7071 0.7071 20.317 292.3418)" style="fill:#F2C34E;" width="8.282" height="8.282"/>
				<path style="fill:#EFCAAB;" d="M371.589,165.753c0,0,2.141-9.177,9.482-8.106c7.341,1.07,6.483,18.757-2.765,21.259
					c-5.432,1.469-7.636-4.753-7.636-4.753L371.589,165.753z"/>
				<path style="fill:#D68578;" d="M323.328,172.913c0.159,0.097-0.365,1.143-0.991,2.069c-0.625,0.926-0.767,0.865-0.921,0.761
					c-0.154-0.105-0.264-0.213,0.362-1.139C322.404,173.678,323.097,172.772,323.328,172.913"/>
				<path style="fill:#D68578;" d="M326.234,172.913c0.159,0.097-0.365,1.143-0.991,2.069c-0.626,0.926-0.767,0.865-0.921,0.761
					c-0.154-0.105-0.264-0.213,0.362-1.139C325.31,173.678,326.003,172.772,326.234,172.913"/>
				<path style="fill:#D68578;" d="M361.628,171.76c0.159,0.097-0.365,1.143-0.99,2.069c-0.626,0.926-0.767,0.865-0.921,0.76
					c-0.154-0.104-0.264-0.212,0.361-1.138C360.704,172.525,361.396,171.619,361.628,171.76"/>
				<path style="fill:#D68578;" d="M364.534,171.76c0.159,0.097-0.365,1.143-0.991,2.069c-0.626,0.926-0.767,0.865-0.921,0.76
					c-0.154-0.104-0.264-0.212,0.362-1.138C363.61,172.525,364.303,171.619,364.534,171.76"/>
				<path style="fill:#331407;" d="M340.375,181.5c-0.071,0.118-0.565-0.026-1.288-0.406c-0.361-0.191-0.779-0.438-1.225-0.768
					c-0.223-0.164-0.451-0.353-0.682-0.591c-0.122-0.148-0.216-0.224-0.36-0.525c-0.092-0.276-0.072-0.587,0.098-0.843
					c0.249-0.372,0.485-0.558,0.725-0.758c0.238-0.195,0.473-0.359,0.699-0.509c0.454-0.3,0.876-0.536,1.24-0.718
					c0.728-0.361,1.223-0.502,1.293-0.382c0.07,0.121-0.291,0.476-0.906,0.981c-0.322,0.259-0.683,0.549-1.078,0.868
					c-0.375,0.308-0.887,0.718-1.108,1.034c0.005,0.006-0.061-0.057,0.133,0.192c0.162,0.183,0.348,0.365,0.536,0.533
					c0.38,0.33,0.727,0.63,1.036,0.897C340.089,181.022,340.447,181.38,340.375,181.5"/>
				<path style="fill:#331407;" d="M322,156.625c-0.17-0.032-0.052-1.316,1.075-2.597c0.554-0.632,1.428-1.178,2.388-1.368
					c0.954-0.227,2.005-0.052,2.771,0.337c0.777,0.381,1.227,0.853,1.532,1.214c0.303,0.371,0.447,0.668,0.523,0.884
					c0.143,0.438,0.002,0.571-0.164,0.655c-0.172,0.088-0.327,0.135-0.639-0.106c-0.323-0.208-0.766-0.833-1.858-1.413
					c-1.063-0.608-2.838-0.411-3.883,0.502C322.658,155.604,322.181,156.697,322,156.625"/>
				<path style="fill:#331407;" d="M362.25,154.375c-0.152,0.173-1.101-0.625-2.484-1.154c-0.685-0.285-1.487-0.378-2.244-0.322
					c-0.768,0.058-1.482,0.389-2.07,0.735c-1.174,0.728-1.682,1.335-2.04,1.544c-0.346,0.237-0.499,0.176-0.661,0.072
					c-0.157-0.101-0.283-0.245-0.1-0.678c0.206-0.405,0.647-1.212,2.094-2.117c0.725-0.431,1.68-0.818,2.697-0.82
					c1.004-0.004,1.999,0.257,2.732,0.703C361.664,153.207,362.353,154.279,362.25,154.375"/>
				<path style="fill:#331407;" d="M381.5,164.75c-0.042,0.001-0.085-0.155-0.171-0.402c-0.112-0.241-0.316-0.573-0.706-0.83
					c-0.383-0.258-0.948-0.413-1.554-0.306c-0.606,0.1-1.224,0.463-1.741,1.006c-1.006,1.115-1.701,2.851-1.943,4.528
					c-0.117,0.826-0.068,1.684,0.3,2.262c0.164,0.304,0.426,0.491,0.691,0.63c0.284,0.091,0.589,0.166,0.877,0.085
					c1.229-0.227,1.374-1.523,1.253-2.218c-0.135-0.707-0.572-1.043-0.885-1.252c-0.664-0.392-0.774-0.457-0.746-0.628
					c0.011-0.121,0.136-0.365,1.087-0.071c0.234,0.086,0.522,0.227,0.816,0.499c0.294,0.266,0.587,0.688,0.718,1.236
					c0.122,0.568,0.147,1.135-0.1,1.879c-0.247,0.723-0.943,1.475-1.939,1.636c-0.488,0.119-1.023,0.025-1.52-0.163
					c-0.48-0.234-0.922-0.604-1.178-1.079c-0.551-0.943-0.531-2.016-0.379-2.96c0.345-1.896,1.139-3.675,2.398-4.935
					c0.645-0.603,1.443-1.007,2.218-1.065c0.774-0.069,1.462,0.202,1.886,0.574c0.433,0.375,0.607,0.817,0.659,1.112
					C381.568,164.593,381.532,164.751,381.5,164.75"/>
				<path style="fill:#331407;" d="M350.125,188c0.111,0.073-0.365,0.994-1.622,2.047c-1.223,1.047-3.399,2.158-5.965,2.094
					c-2.51-0.045-4.711-0.862-6.049-1.811c-1.357-0.939-1.859-1.884-1.739-1.955c0.109-0.084,0.766,0.631,2.112,1.348
					c1.324,0.726,3.379,1.367,5.69,1.41c2.295,0.057,4.267-0.82,5.526-1.658C349.357,188.636,350.012,187.912,350.125,188"/>
				<path style="fill:#331407;" d="M325.198,163.716c0-2.573,1.015-4.659,2.266-4.659c1.252,0,2.266,2.087,2.266,4.659
					c0,2.573-1.014,4.659-2.266,4.659C326.213,168.376,325.198,166.29,325.198,163.716"/>
				<path style="fill:#331407;" d="M355.344,163.716c0-2.573,1.015-4.659,2.266-4.659c1.251,0,2.266,2.087,2.266,4.659
					c0,2.573-1.015,4.659-2.266,4.659C356.358,168.376,355.344,166.29,355.344,163.716"/>
			</g>
			<g>
				<g>
					<path style="fill:#EFCAAB;" d="M152.5,377.5c0,0,2.333,68.833,2.333,76.333s15.667,5.5,15.834-1
						c0.166-6.5,0.166-81.833,0.166-81.833L152.5,377.5z"/>
					<path style="fill:#F2F2F2;" d="M170.666,452.833c0.058-2.254,0.096-12.785,0.12-25.58c-5.156,1.622-12.179,1.224-16.642,0.711
						c0.387,12.522,0.689,23.17,0.689,25.869C154.833,461.333,170.499,459.333,170.666,452.833"/>
					<path style="fill:#471A10;" d="M154.438,451.875c0.125-0.5,0.937-0.061,3.25,1c2.312,1.064,6.25,1.375,8.875,0.75
						s3.625-2.25,4-2.061c0.375,0.186,18.688,3.311,22.75,6.311c4.063,3,4.25,8.625,0.5,9.439h-35.75c-3.812,0-3.625-2.375-3.5-4.25
						S154.438,451.875,154.438,451.875"/>
					<path style="fill:#E8E8E8;" d="M193.813,467.313c1.706-0.369,2.587-1.738,2.67-3.398c-2.906,0.077-10.897,0.231-24.732,0.085
						c-9.605-0.1-14.622-0.345-17.213-0.55c-0.107,1.799-0.03,3.863,3.525,3.863H193.813z"/>
					<path style="fill:#F2F2F2;" d="M174.75,457.969c-0.201,0.386-2.188,0-2.188-0.813s2.001-4.281,2.282-4.688
						c0.281-0.406,3.094,0.188,2.781,0.5C177.313,453.281,176.312,454.969,174.75,457.969"/>
					<path style="fill:#F2F2F2;" d="M179.938,453.563c-0.105,0.315-2.25,3.656-2.438,4.656c-0.187,1-2.812,0.5-2.749-0.25
						c0.062-0.75,2.437-4.718,2.874-5C178.063,452.688,180.124,453.001,179.938,453.563"/>
					<path style="fill:#E0A58C;" d="M170.828,388.508c0.005-10.228,0.005-17.508,0.005-17.508l-18.333,6.5
						c0,0,0.174,5.145,0.428,12.768C158.926,390.212,164.899,389.733,170.828,388.508z"/>
				</g>
				<g>
					<path style="fill:#EFCAAB;" d="M132.373,377.5c0,0-2.333,68.833-2.333,76.333s-15.667,5.5-15.834-1
						c-0.166-6.5-0.166-81.833-0.166-81.833L132.373,377.5z"/>
					<path style="fill:#E0A58C;" d="M131.977,389.31c0.236-7.093,0.396-11.81,0.396-11.81L114.04,371c0,0,0,7.147,0.005,17.224
						C120.012,388.389,125.996,388.859,131.977,389.31z"/>
					<path style="fill:#F2F2F2;" d="M114.206,452.833c-0.058-2.254-0.095-12.785-0.12-25.58c5.156,1.622,12.18,1.224,16.643,0.711
						c-0.387,12.522-0.69,23.17-0.69,25.869C130.039,461.333,114.373,459.333,114.206,452.833"/>
					<path style="fill:#471A10;" d="M130.436,451.875c-0.125-0.5-0.937-0.061-3.25,1c-2.312,1.064-6.25,1.375-8.875,0.75
						s-3.625-2.25-4-2.061c-0.375,0.186-18.688,3.311-22.75,6.311c-4.063,3-4.25,8.625-0.5,9.439h35.75
						c3.812,0,3.625-2.375,3.5-4.25S130.436,451.875,130.436,451.875"/>
					<path style="fill:#E8E8E8;" d="M91.061,467.313c-1.706-0.369-2.588-1.738-2.67-3.399c2.906,0.078,10.896,0.232,24.732,0.086
						c9.605-0.1,14.622-0.345,17.212-0.55c0.108,1.799,0.031,3.863-3.524,3.863H91.061z"/>
					<path style="fill:#F2F2F2;" d="M110.123,457.969c0.201,0.386,2.188,0,2.188-0.813s-2.001-4.281-2.282-4.688
						c-0.281-0.406-3.094,0.188-2.781,0.5C107.56,453.281,108.561,454.969,110.123,457.969"/>
					<path style="fill:#F2F2F2;" d="M104.936,453.563c0.105,0.315,2.25,3.656,2.438,4.656c0.187,1,2.812,0.5,2.749-0.25
						c-0.062-0.75-2.437-4.718-2.874-5C106.811,452.688,104.748,453.001,104.936,453.563"/>
				</g>
				<path style="fill:#BABCBF;" d="M189,337l11.75-102.5c0,0,13,1,11.25,7.5s-15.25,89.75-15.25,89.75L189,337z"/>
				<path style="fill:#EFCAAB;" d="M87.5,255.167c0,0-8.333,9.833-10.167,16.166c-1.833,6.334,1.834,10.5,11.5,16.167
					c9.667,5.667,16,8.833,16,8.833l5-14.166c0,0-14.666-9-15.333-9.334c-0.667-0.333,7.333-9.5,7.333-9.5L87.5,255.167z"/>
				<path style="fill:#E0A58C;" d="M96.331,269.934c2.184-2.797,5.502-6.601,5.502-6.601L87.5,255.167c0,0-1.951,2.304-4.172,5.398
					C86.957,264.449,91.551,267.522,96.331,269.934z"/>
				<path style="fill:#E0A58C;" d="M101.465,277.044c-1.146,5.098-4.907,9.38-9.331,12.369c7.78,4.46,12.699,6.92,12.699,6.92
					l5-14.166C109.833,282.167,105.521,279.521,101.465,277.044z"/>
				<path style="fill:#5D3221;" d="M106.5,381.833c0.42,1.309,6.667,2.667,36.667,2.667s35.833-1,36-1.667
					c0.166-0.666-4.167-59-8.334-80.5l-60.833-2C110,300.333,105,377.167,106.5,381.833"/>
				<path style="fill:#512B1E;" d="M127.372,347.358c9.953,2.703,20.254,4.16,30.55,4.61c5.448,0.238,10.908,0.268,16.359,0.412
					c0.841,0.022,1.684,0.033,2.527,0.036c-1.6-17.803-3.81-38.914-5.975-50.084l-60.833-2c0,0-1.24,19.056-2.3,38.764
					C113.874,343.162,121.565,345.782,127.372,347.358z"/>
				<path style="fill:#B55D15;" d="M85.664,162.533c-0.967-7.021,21.589-15.93,50.381-19.897
					c28.793-3.968,52.918-1.493,53.886,5.528c0.967,7.022-21.589,15.93-50.382,19.898
					C110.757,172.029,86.632,169.554,85.664,162.533"/>
				<path style="fill:#471A10;" d="M174.125,138.563c0,0,2.188,1.5,3.625,3.438c1.437,1.937,7.188,15.562-8.187,24.874
					c0,0-1.125,1.313,0.187,1.938s10.375,2.938,12.5,9.063s-3.75,10.875-3.5,11.75s6.125,6.25,3,15.875s-14.375,7.125-15.125,7.375
					s-0.625,7.25-10.25,9.625s-14.5-1.25-14.875-1.125s-11.375,5.25-20,1.875s-10-9.125-10-9.125s-10-0.25-13.25-5.25
					s-0.5-14.5-0.5-14.5s-4.125-1.5-4.875-10.25s8.125-13,8-13.375c-0.125-0.376-4.75-24.876,9.625-33
					C124.875,129.625,165.5,133.001,174.125,138.563"/>
				<path style="fill:#D7A476;" d="M141.747,221.319c11.245,0.555,23.753-1.152,28.587,5.348c4.833,6.5,15.333,34.666,15.333,34.666
					l-13,8.834l-7.649-13.564l-50.518-5.936l-14,16.666c0,0-12-8.333-16-13c0,0,15.5-19.166,21.334-25.166
					C111.666,223.167,117.827,220.138,141.747,221.319"/>
				<path style="fill:#CE896B;" d="M170.52,226.933c0.053,0.706,0.074,1.417,0.115,2.14c0.097,1.698,0.447,3.372,0.526,5.071
					c0.18,3.835-0.609,7.612-0.411,11.482c0.169,3.307,0.952,7.047,0.085,10.307c-0.579,2.175-1.646,4.071-2.873,5.892l4.705,8.344
					l13-8.834C185.666,261.333,175.429,233.875,170.52,226.933z"/>
				<path style="fill:#D7A476;" d="M112,236.167l-2,64.168c0,0,8.667,4.166,35,4.166s26.769-3.262,26.769-3.262l-1-66.5"/>
				<path style="fill:#A97C50;" d="M170.786,299.211c-2.336,0.631-8.627,1.456-25.585,1.456c-21.4,0-31.62-2.525-35.098-3.645
					L110,300.333c0,0,8.666,4.167,35,4.167c26.333,0,25.833-2.167,25.833-2.167L170.786,299.211z"/>
				<path style="fill:#AF2323;" d="M143.917,232.75c0,0-5.75,19.167-7.333,25l-8.25-3.25c0,0,8.416-19.417,11.916-22.75
					L143.917,232.75z"/>
				<path style="fill:#E8E8E8;" d="M146.417,231.25c0,0,6.583,7.75,12.583,25.167l-7,2.333c0,0-5.25-18.167-8.916-25.583
					L146.417,231.25z"/>
				<path style="fill:#EFCAAB;" d="M148.688,230.313c-2.089,2.866-11.667,2.496-14.188,0c-6.374-6.312,0-10.749,0-10.749v-9.251
					h14.188v9.625C148.688,219.938,155.749,220.625,148.688,230.313"/>
				<path style="fill:#E0A58C;" d="M142.001,219.781c2.199,0.121,4.47,0.148,6.686-0.117v-9.352h-14.188v7.976
					C136.793,219.409,139.82,219.661,142.001,219.781z"/>
				<path style="fill:#CC2929;" d="M138.75,227.938c0,0,3.875,1.375,8.625-0.125l1.938,1.812c0,0-1.813,6.501-6.188,6.313
					C139.36,235.776,134.313,227.938,138.75,227.938"/>
				<g>
					<g>
						<path style="fill:#C17E67;" d="M135.125,234.125l6-6.25c0,0-6.312-5.125-6.625-8.313v-5.249c0,0-5.509,1.657-6.812,6.062
							C125.875,226.5,135.125,234.125,135.125,234.125"/>
						<path style="fill:#C17E67;" d="M148.688,215.063v5.375c0,0,0.875-0.063,0.875,0.437s-4.563,6.688-4.563,6.688l5.938,6.125
							c0,0,5.813-8.375,5.875-11.188c0.063-2.812-5.187-7-5.187-7L148.688,215.063z"/>
					</g>
				</g>
				<path style="fill:#EFCAAB;" d="M144.667,216.167L144.667,216.167c-15.648,0-30.333-12.685-30.333-28.333v-30
					c0-15.648,12.685-20.334,28.333-20.334c15.648,0,28.333,4.686,28.333,20.334v34
					C170.999,207.481,160.314,216.167,144.667,216.167"/>
				<path style="fill:#E0A58C;" d="M122.906,159.901c1.716-0.419,3.42-0.837,4.878-1.882c1.005-0.719,1.977-1.466,3.063-2.059
					c1.53-0.837,3.179-0.148,4.53,0.692c2.697,1.675,5.163,2.386,8.371,2.18c1.669-0.107,3.172-0.422,4.756-0.93
					c0.617-0.198,1.341-0.491,2.01-0.42c2.088,0.22,4.049,1.29,6.091,1.783c4.443,1.074,9.792,1.934,14.393,0.699v-2.13
					c0-15.648-12.685-20.334-28.333-20.334c-15.648,0-28.333,4.686-28.333,20.334v2.589
					C117.182,160.817,120.096,160.587,122.906,159.901z"/>
				<path style="fill:#471A10;" d="M109.875,180c0,0,7-3,8.75-12.125S117.75,155.25,117.5,154.5s0.312-2.187,0.813-2
					c0.5,0.188,7.624,1.5,10.687-7.688c0,0,10.125,13.001,22.75,6.938c0,0,6.375,6.313,16,5.938s12.289-11.018,10-15.688
					c-1.562-3.188-5.687-8.25-15.375-11.25c-9.687-3-32.625-4.25-45,3.375S109.875,180,109.875,180"/>
				<path style="fill:#E59013;" d="M85.666,161.719c0.774-6.882,22.687-15.267,50.378-19.083c25.068-3.455,46.591-2.024,52.38,3.038
					c-2.529-3.634-8.675-10.656-21.55-17.049c0,0,0.75-23.25-30.625-21.625s-36.25,18.25-36,32.5
					C100.249,139.5,86.145,153.273,85.666,161.719"/>
				<path style="fill:#512B1E;" d="M166.875,128.625c0,0,0.071-2.382-0.85-5.563c-5.178-1.086-16.906-2.525-35.65,0.688
					c-16.043,2.75-25.121,6.385-29.761,8.798c-0.31,2.331-0.404,4.672-0.364,6.952C100.25,139.5,126.75,125.625,166.875,128.625"/>
				<path style="fill:#EFCAAB;" d="M115.625,177.5c0,0,0.146-4.842-4.5-8.25c-3.75-2.75-10,4.25-7.5,14.125S114.75,189.75,115,189
					S115.625,177.5,115.625,177.5"/>
				<path style="fill:#331407;" d="M164.25,161.5c-0.136,0.126-0.777-0.563-1.768-1.001c-0.991-0.498-2.28-0.237-3.15,0.35
					c-0.876,0.566-1.287,0.987-1.565,1.135c-0.272,0.163-0.393,0.106-0.517,0.016c-0.122-0.088-0.216-0.205-0.071-0.525
					c0.158-0.307,0.514-0.875,1.577-1.564c0.529-0.339,1.248-0.618,2.014-0.657c0.76-0.04,1.546,0.173,2.077,0.558
					C163.943,160.551,164.339,161.438,164.25,161.5"/>
				<path style="fill:#331407;" d="M126.664,162.485c-0.094-0.064,0.374-1.078,1.47-2.11c0.57-0.481,1.29-1,2.165-1.205
					c0.863-0.22,1.787-0.143,2.51,0.107c1.447,0.533,1.942,1.212,2.182,1.532c0.222,0.354,0.137,0.487,0.022,0.581
					c-0.12,0.098-0.235,0.157-0.56-0.019c-0.333-0.145-0.85-0.636-1.997-1.052c-0.572-0.195-1.254-0.278-1.938-0.159
					c-0.69,0.104-1.337,0.474-1.903,0.826C127.513,161.76,126.809,162.6,126.664,162.485"/>
				<path style="fill:#331407;" d="M106.416,177.084c-0.047-0.021,0.082-0.628,0.58-1.542c0.109-0.235,0.279-0.473,0.481-0.723
					c0.087-0.133,0.209-0.252,0.355-0.365c0.138-0.118,0.274-0.245,0.483-0.312c0.367-0.224,0.898-0.139,1.309,0.045
					c0.383,0.229,0.711,0.53,0.973,0.871c0.533,0.68,0.933,1.465,1.3,2.278c0.355,0.835,0.691,1.62,0.962,2.559
					c0.246,0.938,0.274,2.001-0.153,2.928c-0.19,0.467-0.518,0.879-0.915,1.206c-0.392,0.329-0.955,0.531-1.517,0.461
					c-0.556-0.073-1.045-0.421-1.267-0.796c-0.258-0.367-0.377-0.746-0.463-1.045c-0.179-0.63-0.24-1.223-0.188-1.744
					c0.098-1.062,0.679-1.726,1.127-1.97c0.455-0.266,0.767-0.24,0.915-0.207c0.155,0.043,0.178,0.114,0.185,0.189
					c0.006,0.076-0.012,0.152-0.112,0.232c-0.095,0.088-0.284,0.173-0.531,0.415c-0.241,0.234-0.543,0.65-0.573,1.415
					c-0.014,0.38,0.048,0.84,0.211,1.366c0.158,0.538,0.416,1.01,0.834,1.053c0.421,0.085,1.032-0.376,1.312-1.02
					c0.317-0.641,0.33-1.462,0.151-2.239c-0.467-1.615-1.076-3.382-1.899-4.612c-0.208-0.312-0.45-0.549-0.693-0.73
					c-0.253-0.106-0.498-0.214-0.746-0.081c-0.496,0.197-0.913,0.664-1.183,1.059C106.776,176.567,106.505,177.127,106.416,177.084"
					/>
				<path style="fill:#D68578;" d="M165.666,181.75c0.16-0.125,0.888,0.599,1.46,1.39c0.573,0.791,0.455,0.908,0.29,1.027
					c-0.164,0.119-0.312,0.195-0.885-0.596C165.958,182.78,165.436,181.932,165.666,181.75"/>
				<path style="fill:#D68578;" d="M162.916,181.75c0.16-0.125,0.888,0.599,1.46,1.39c0.573,0.791,0.455,0.908,0.29,1.027
					c-0.164,0.119-0.312,0.195-0.885-0.596C163.208,182.78,162.686,181.932,162.916,181.75"/>
				<path style="fill:#D68578;" d="M126.5,181.25c0.16-0.125,0.888,0.599,1.46,1.39c0.573,0.791,0.455,0.908,0.29,1.027
					s-0.312,0.195-0.885-0.596C126.792,182.28,126.268,181.432,126.5,181.25"/>
				<path style="fill:#D68578;" d="M123.75,181.25c0.16-0.125,0.888,0.599,1.46,1.39c0.573,0.791,0.455,0.908,0.29,1.027
					s-0.312,0.195-0.885-0.596C124.042,182.28,123.518,181.432,123.75,181.25"/>
				<path style="fill:#331407;" d="M149,188.25c-0.11-0.078,0.09-0.571,0.601-1.218c0.252-0.323,0.577-0.682,0.927-1.064
					c0.176-0.191,0.352-0.389,0.513-0.59c0.161-0.186,0.277-0.44,0.27-0.465c-0.022-0.005,0.032,0.005-0.03-0.029
					c-0.014-0.022-0.168-0.13-0.29-0.213c-0.242-0.175-0.466-0.349-0.673-0.521c-0.415-0.343-0.766-0.673-1.05-0.962
					c-0.566-0.579-0.859-1-0.768-1.105c0.091-0.105,0.545,0.122,1.218,0.553c0.344,0.23,0.732,0.488,1.157,0.771
					c0.216,0.144,0.44,0.294,0.672,0.448c0.117,0.078,0.214,0.122,0.42,0.299c0.184,0.144,0.352,0.461,0.351,0.755
					c-0.05,0.592-0.323,0.843-0.515,1.097c-0.21,0.239-0.42,0.44-0.62,0.62c-0.401,0.361-0.766,0.656-1.073,0.904
					C149.496,188.021,149.117,188.334,149,188.25"/>
				<path style="fill:#331407;" d="M127.5,168.25c0.152-0.056,0.473,0.453,1.026,0.954c0.547,0.51,1.329,1.006,1.976,1.342
					c1.305,0.645,1.34,0.804,1.248,1.121c-0.069,0.265-0.284,0.581-1.766-0.15c-0.731-0.378-1.582-1.078-2.055-1.815
					C127.443,168.965,127.367,168.291,127.5,168.25"/>
				<path style="fill:#331407;" d="M164.5,167.922c0.133,0.04,0.063,0.721-0.414,1.476c-0.464,0.755-1.314,1.482-2.049,1.877
					c-1.494,0.766-1.717,0.447-1.787,0.184c-0.095-0.317-0.059-0.472,1.252-1.146c0.651-0.35,1.434-0.87,1.977-1.402
					C164.029,168.39,164.347,167.867,164.5,167.922"/>
				<path style="fill:#331407;" d="M129.083,172.834c0-2.624,1.007-4.75,2.25-4.75s2.25,2.126,2.25,4.75
					c0,2.623-1.007,4.75-2.25,4.75S129.083,175.457,129.083,172.834"/>
				<path style="fill:#331407;" d="M162.916,172.667c0-2.715-1.007-4.917-2.25-4.917c-1.243,0-2.25,2.202-2.25,4.917
					s1.007,4.917,2.25,4.917C161.91,177.584,162.916,175.381,162.916,172.667"/>
				<path style="fill:#B72E45;" d="M156.729,197.756c-0.043-1.112-1.155-1.984-2.483-1.948l-14.286,0.391
					c-1.328,0.036-2.37,0.967-2.326,2.079l0.015,0.399c0.173,4.416,4.587,7.88,9.86,7.735c5.273-0.144,9.407-3.841,9.235-8.258
					L156.729,197.756z"/>
				<path style="fill:#EF4B57;" d="M139.123,202.679c1.75,2.32,4.874,3.83,8.386,3.733c3.082-0.084,5.767-1.387,7.439-3.334
					c-1.532-1.831-4.741-3.063-8.391-2.991C143.39,200.148,140.66,201.176,139.123,202.679"/>
				<path style="fill:#F2F2F2;" d="M119.25,239.25l-7.25,92.5c0,0,10.25,11,45.25,11s39.75-5.5,39.75-5.5L212,242
					c0,0-2.5,8.25-36,8.25S119.25,239.25,119.25,239.25"/>
				<path style="fill:#E8E8E8;" d="M169.367,319.232c-0.249-0.078-0.438-0.351-0.349-0.615c2.49-7.442,16.729-10.136,14.621-19.232
					c-6.494,1.963-11.817,8.071-18.875,8.107c-3.512,0.017-8.445-1.355-7.347-5.883c0.786-3.242,3.554-5.086,6.136-6.951
					c3.379-2.44,7.416-4.697,10.042-8.001c1.307-1.645,1.855-3.614-0.472-4.678c-2.073-0.946-4.579-1.689-6.873-1.729
					c-3.632-0.063-7.125,1.414-10.367,2.907c-2.737,1.26-5.494,2.48-8.218,3.767c-5.979,2.824-12.219,6.204-18.915,6.826
					c-4.34,0.403-9.8-0.217-13.565-2.628L112,331.75c0,0,10.25,11,45.25,11s39.75-5.5,39.75-5.5l2.817-17.887
					C189.735,321.815,179.38,322.37,169.367,319.232z"/>
				<path style="fill:#EFCAAB;" d="M204.833,291.417c-5.16,0.311-7.583,1.083-7.167,4.5c0.417,3.416,9.084,3,11.334,1.25
					S211.75,291,204.833,291.417"/>
				<path style="fill:#EFCAAB;" d="M204.75,292.5c-6.419,0-7.167-1.083-7.083-3.917c0.093-3.165,2.333-3.166,6.666-3.083
					c4.334,0.083,7.334-0.417,7.334,2.417C211.667,290.75,209.833,292.5,204.75,292.5"/>
				<path style="fill:#EFCAAB;" d="M205.083,285.75c-6.801,0-7.505-0.667-7.417-3.5c0.099-3.165,2.473-3.167,7.064-3.083
					c4.591,0.083,7.77-0.417,7.77,2.416C212.5,284.417,210.47,285.75,205.083,285.75"/>
				<path style="fill:#EFCAAB;" d="M205.002,279.417c-6.645,0-7.248-0.638-7.162-3.395c0.097-3.08,2.415-3.082,6.901-3
					c4.486,0.081,7.592-0.406,7.592,2.351C212.333,278.13,210.264,279.417,205.002,279.417"/>
				<path style="fill:#605F5F;" d="M172.271,287.646c-1.723,1.026-4.036,2.556-6.495,4.373c-2.461,1.815-4.605,3.566-6.119,4.878
					c-1.512,1.313-2.392,2.191-2.324,2.269c0.068,0.08,1.067-0.651,2.66-1.854c1.613-1.213,3.807-2.862,6.232-4.685
					c2.447-1.808,4.696-3.397,6.336-4.531c1.634-1.143,2.665-1.826,2.605-1.929C175.122,286.088,173.991,286.611,172.271,287.646"/>
				<path style="fill:#605F5F;" d="M168.263,302.464c-1.292,1.075-2.194,2.104-2.097,2.203c0.097,0.1,1.144-0.755,2.419-1.816
					c1.269-1.069,2.322-1.9,2.248-2.018C170.76,300.714,169.55,301.379,168.263,302.464"/>
				<path style="fill:#EFCAAB;" d="M103.5,280.667c1.112-2.554,4.167-7,7.667-8.084c3.5-1.083,14.416-0.25,14.75,3
					c0.333,3.25-2.667,4.084-8.084,4.25c0,0-1.916,9.5-0.083,9.5s7.833,0,7.833,3.417s-2.25,3.417-5.75,3.5s-4.25-0.25-4.25,0.167
					c0,0.416,0.667,3.25-5.083,4S97.333,294.833,103.5,280.667"/>
				<path style="fill:#EFCAAB;" d="M114,290.667c0,0,6.917,0.083,9.417,0c2.5-0.084,4-6.084-0.584-6.25
					c-4.583-0.167-9.5-0.167-9.5-0.167"/>
				<path style="fill:#EFCAAB;" d="M113.25,278.835c0,0,7-0.26,10.417,0.435c3.416,0.694,3.75,5.383-1.417,5.383
					S113.083,285,113.083,285"/>
			</g>
		</g>
	</g>
</g>
</svg>
